<svg xmlns="http://www.w3.org/2000/svg" width="263" height="197" viewBox="0 0 263 197" fill="none"><mask id="path-1-inside-1_11_30" fill="white"><path d="M0 10C0 4.47715 4.47715 0 10 0H253C258.523 0 263 4.47715 263 10V187C263 192.523 258.523 197 253 197H10C4.47715 197 0 192.523 0 187V10Z"></path></mask><path d="M0 10C0 4.47715 4.47715 0 10 0H253C258.523 0 263 4.47715 263 10V187C263 192.523 258.523 197 253 197H10C4.47715 197 0 192.523 0 187V10Z" fill="white"></path><path d="M44.2 37C43.9653 37 43.848 36.9253 43.848 36.776V36.728C43.848 36.632 43.9493 36.4933 44.152 36.312C44.3547 36.12 44.456 35.9067 44.456 35.672V26.968C44.456 26.7333 44.3547 26.5253 44.152 26.344C43.9493 26.152 43.848 26.008 43.848 25.912V25.864C43.848 25.7147 43.9653 25.64 44.2 25.64H47.72C49.6827 25.64 51.2933 26.1787 52.552 27.256C53.8213 28.3227 54.456 29.6613 54.456 31.272C54.456 33.0107 53.8907 34.4027 52.76 35.448C51.64 36.4827 50.2 37 48.44 37H44.2ZM47.32 36.184H48.328C49.544 36.184 50.536 35.8053 51.304 35.048C52.0827 34.2907 52.472 33.272 52.472 31.992C52.472 30.4027 51.9813 29.0853 51 28.04C50.0187 26.984 48.8027 26.456 47.352 26.456H46.904C46.5413 26.456 46.36 26.6533 46.36 27.048V35.048C46.36 35.4107 46.4453 35.6933 46.616 35.896C46.7867 36.088 47.0213 36.184 47.32 36.184ZM62.3931 35.56C62.4145 35.7947 62.4731 35.9813 62.5691 36.12C62.6758 36.248 62.7771 36.328 62.8731 36.36C62.9798 36.392 63.0705 36.4347 63.1451 36.488C63.2305 36.5413 63.2731 36.6107 63.2731 36.696C63.2731 36.9627 62.8411 37.096 61.9771 37.096C61.5505 37.096 61.2358 37.032 61.0331 36.904C60.8411 36.7653 60.7291 36.5093 60.6971 36.136C60.2705 36.8187 59.5291 37.16 58.4731 37.16C57.5771 37.16 56.8518 36.952 56.2971 36.536C55.7531 36.1093 55.4811 35.512 55.4811 34.744C55.4705 33.9867 55.7425 33.4 56.2971 32.984C56.8518 32.5573 57.5505 32.344 58.3931 32.344C59.1611 32.344 59.7798 32.5253 60.2491 32.888L60.2171 32.568C60.1211 31.5867 59.9505 30.872 59.7051 30.424C59.4598 29.976 59.0705 29.752 58.5371 29.752C58.2065 29.752 57.9291 29.8533 57.7051 30.056C57.4918 30.2587 57.3425 30.4827 57.2571 30.728C57.1825 30.9627 57.0705 31.1813 56.9211 31.384C56.7718 31.5867 56.5851 31.688 56.3611 31.688C56.1265 31.688 55.9345 31.624 55.7851 31.496C55.6465 31.3573 55.5771 31.176 55.5771 30.952C55.5771 30.44 55.8545 30.0133 56.4091 29.672C56.9745 29.3307 57.6838 29.16 58.5371 29.16C59.5398 29.16 60.3505 29.4587 60.9691 30.056C61.5878 30.6427 61.9558 31.4533 62.0731 32.488L62.3931 35.56ZM59.0011 36.552C59.4385 36.552 59.7905 36.392 60.0571 36.072C60.3345 35.752 60.4625 35.3733 60.4411 34.936L60.3931 34.44C60.3611 33.9813 60.2065 33.6187 59.9291 33.352C59.6518 33.0853 59.2998 32.952 58.8731 32.952C58.4251 32.952 58.0625 33.096 57.7851 33.384C57.5078 33.6613 57.3691 34.04 57.3691 34.52C57.3691 35.0853 57.5185 35.5653 57.8171 35.96C58.1265 36.3547 58.5211 36.552 59.0011 36.552ZM76.9129 35.656C76.9235 35.8907 77.0195 36.104 77.2009 36.296C77.3929 36.488 77.4889 36.632 77.4889 36.728V36.792C77.4889 36.9413 77.3769 37.016 77.1529 37.016H74.8009C74.5769 37.016 74.4649 36.9413 74.4649 36.792V36.728C74.4649 36.632 74.5609 36.4933 74.7529 36.312C74.9449 36.12 75.0355 35.9067 75.0249 35.672L74.8649 32.648C74.8222 31.688 74.6569 30.9947 74.3689 30.568C74.0915 30.1413 73.6915 29.928 73.1689 29.928C72.7315 29.928 72.3582 30.1093 72.0489 30.472C71.7502 30.824 71.5902 31.272 71.5689 31.816C71.6115 32.0293 71.6329 32.2853 71.6329 32.584V35.672C71.6329 35.9067 71.7235 36.12 71.9049 36.312C72.0969 36.4933 72.1929 36.632 72.1929 36.728V36.792C72.1929 36.9413 72.0809 37.016 71.8569 37.016H69.5369C69.3022 37.016 69.1849 36.9413 69.1849 36.792V36.728C69.1849 36.632 69.2755 36.4933 69.4569 36.312C69.6489 36.12 69.7449 35.9067 69.7449 35.672V32.472C69.7449 31.672 69.5849 31.048 69.2649 30.6C68.9555 30.152 68.5555 29.928 68.0649 29.928C67.5849 29.928 67.1902 30.1093 66.8809 30.472C66.5715 30.824 66.4062 31.2773 66.3849 31.832L66.4009 35.672C66.4009 35.9067 66.5075 36.12 66.7209 36.312C66.9342 36.4933 67.0409 36.632 67.0409 36.728V36.792C67.0409 36.9413 66.9289 37.016 66.7049 37.016H64.2249C63.9902 37.016 63.8729 36.9413 63.8729 36.792V36.728C63.8729 36.632 63.9795 36.4933 64.1929 36.312C64.4062 36.12 64.5129 35.9067 64.5129 35.672V31.384C64.5129 31.192 64.4542 31.032 64.3369 30.904C64.2195 30.776 64.1022 30.6693 63.9849 30.584C63.8675 30.4987 63.8089 30.408 63.8089 30.312V30.264C63.8089 30.1573 63.9049 30.0613 64.0969 29.976L65.7289 29.224C65.8995 29.1493 66.0275 29.144 66.1129 29.208C66.1982 29.2613 66.2409 29.3627 66.2409 29.512V30.456C66.4755 30.0613 66.7902 29.7467 67.1849 29.512C67.5902 29.2773 68.0382 29.16 68.5289 29.16C69.1155 29.16 69.6435 29.2987 70.1129 29.576C70.5929 29.8533 70.9662 30.2427 71.2329 30.744C71.4355 30.2427 71.7609 29.8533 72.2089 29.576C72.6569 29.2987 73.1635 29.16 73.7289 29.16C74.5609 29.16 75.2435 29.4427 75.7769 30.008C76.3209 30.5627 76.6355 31.4587 76.7209 32.696L76.9129 35.656ZM79.9405 27.992C79.5458 27.992 79.2258 27.88 78.9805 27.656C78.7352 27.432 78.6125 27.144 78.6125 26.792C78.6125 26.44 78.7352 26.152 78.9805 25.928C79.2258 25.704 79.5458 25.592 79.9405 25.592C80.3245 25.592 80.6338 25.704 80.8685 25.928C81.1138 26.152 81.2365 26.44 81.2365 26.792C81.2365 27.144 81.1138 27.432 80.8685 27.656C80.6338 27.88 80.3245 27.992 79.9405 27.992ZM78.7565 37C78.5325 37 78.4205 36.92 78.4205 36.76V36.696C78.4205 36.6 78.5165 36.4613 78.7085 36.28C78.9112 36.0987 79.0125 35.8907 79.0125 35.656V31.464C79.0125 31.2187 78.9112 30.9893 78.7085 30.776C78.5165 30.5627 78.4205 30.424 78.4205 30.36V30.312C78.4205 30.2267 78.5165 30.1307 78.7085 30.024L80.3085 29.224C80.4898 29.1493 80.6285 29.144 80.7245 29.208C80.8312 29.2613 80.8845 29.3573 80.8845 29.496V35.656C80.8845 35.8907 80.9912 36.0987 81.2045 36.28C81.4285 36.4613 81.5405 36.6 81.5405 36.696V36.76C81.5405 36.92 81.4232 37 81.1885 37H78.7565ZM96.7324 35.944C96.9564 35.944 97.0684 36.0293 97.0684 36.2V36.28C97.0684 36.472 96.9137 36.6693 96.6044 36.872C96.295 37.064 95.9484 37.16 95.5644 37.16C95.1164 37.16 94.727 37.0747 94.3964 36.904C94.0657 36.7227 93.735 36.4453 93.4044 36.072C92.4444 36.7973 91.3084 37.16 89.9964 37.16C88.727 37.16 87.7457 36.9093 87.0524 36.408C86.3697 35.9067 86.0284 35.1547 86.0284 34.152C86.0284 32.9147 86.919 31.8267 88.7004 30.888C88.2417 30.376 87.895 29.9173 87.6604 29.512C87.4257 29.096 87.3084 28.6427 87.3084 28.152C87.3084 27.352 87.6017 26.712 88.1884 26.232C88.775 25.7413 89.543 25.496 90.4924 25.496C91.367 25.496 92.0764 25.7147 92.6204 26.152C93.1644 26.5893 93.4364 27.1653 93.4364 27.88C93.4364 29.032 92.6524 29.9707 91.0844 30.696L93.8684 33.736C94.3164 32.6587 94.5404 31.4533 94.5404 30.12C94.5404 29.928 94.6577 29.7893 94.8924 29.704C95.127 29.6187 95.3564 29.6187 95.5804 29.704C95.815 29.7787 95.9324 29.9227 95.9324 30.136C95.9324 31.9173 95.527 33.4267 94.7164 34.664L95.0364 35C95.6124 35.6293 96.0444 35.944 96.3324 35.944H96.7324ZM90.3004 26.12C89.9697 26.12 89.703 26.264 89.5004 26.552C89.3084 26.8293 89.2124 27.2027 89.2124 27.672C89.2124 28.0987 89.3084 28.4827 89.5004 28.824C89.703 29.1547 90.0124 29.5387 90.4284 29.976C91.2177 29.4533 91.6124 28.744 91.6124 27.848C91.6124 27.3253 91.4897 26.9093 91.2444 26.6C91.0097 26.28 90.695 26.12 90.3004 26.12ZM90.2684 36.584C91.239 36.584 92.087 36.1947 92.8124 35.416L89.3404 31.592C88.4017 32.264 87.9324 33.176 87.9324 34.328C87.9324 35 88.135 35.544 88.5404 35.96C88.9457 36.376 89.5217 36.584 90.2684 36.584ZM104.953 26.968C104.953 26.7333 104.852 26.5253 104.649 26.344C104.446 26.152 104.345 26.008 104.345 25.912V25.864C104.345 25.7147 104.462 25.64 104.697 25.64H107.209C107.433 25.64 107.545 25.7147 107.545 25.864V25.912C107.545 26.008 107.438 26.152 107.225 26.344C107.012 26.5253 106.905 26.7333 106.905 26.968L106.889 32.584C106.878 35.6133 105.678 37.1387 103.289 37.16C102.66 37.16 102.105 37.0747 101.625 36.904C101.145 36.7227 100.777 36.488 100.521 36.2C100.265 35.912 100.073 35.624 99.945 35.336C99.8277 35.0373 99.769 34.7493 99.769 34.472C99.769 34.184 99.849 33.9547 100.009 33.784C100.18 33.6027 100.398 33.512 100.665 33.512C100.953 33.512 101.182 33.608 101.353 33.8C101.524 33.992 101.652 34.2267 101.737 34.504C101.822 34.7813 101.913 35.064 102.009 35.352C102.105 35.6293 102.265 35.864 102.489 36.056C102.724 36.248 103.033 36.344 103.417 36.344C103.876 36.344 104.244 36.104 104.521 35.624C104.809 35.144 104.953 34.4773 104.953 33.624V26.968ZM112.706 37.16C111.394 37.16 110.344 36.76 109.554 35.96C108.765 35.16 108.37 34.2 108.37 33.08C108.37 31.96 108.754 31.0267 109.522 30.28C110.29 29.5333 111.229 29.16 112.338 29.16C113.576 29.16 114.589 29.5547 115.378 30.344C116.168 31.1227 116.562 32.0773 116.562 33.208C116.562 34.328 116.205 35.2667 115.49 36.024C114.776 36.7813 113.848 37.16 112.706 37.16ZM112.946 36.552C113.458 36.552 113.874 36.3173 114.194 35.848C114.514 35.368 114.674 34.7067 114.674 33.864C114.674 32.7333 114.429 31.768 113.938 30.968C113.458 30.168 112.856 29.768 112.13 29.768C111.554 29.768 111.096 30.0027 110.754 30.472C110.424 30.9307 110.258 31.592 110.258 32.456C110.258 33.5013 110.509 34.4453 111.01 35.288C111.522 36.1307 112.168 36.552 112.946 36.552ZM117.911 37C117.687 37 117.575 36.92 117.575 36.76V36.712C117.575 36.6053 117.671 36.4613 117.863 36.28C118.065 36.0987 118.167 35.896 118.167 35.672V27.24C118.167 26.984 118.065 26.7547 117.863 26.552C117.671 26.3493 117.575 26.216 117.575 26.152V26.104C117.575 26.008 117.665 25.912 117.847 25.816L119.463 25.016C119.644 24.9413 119.783 24.936 119.879 25C119.985 25.0533 120.039 25.144 120.039 25.272V35.672C120.039 35.896 120.145 36.104 120.359 36.296C120.583 36.4773 120.695 36.616 120.695 36.712V36.76C120.695 36.92 120.577 37 120.343 37H117.911ZM128.612 35.56C128.633 35.7947 128.692 35.9813 128.788 36.12C128.895 36.248 128.996 36.328 129.092 36.36C129.199 36.392 129.289 36.4347 129.364 36.488C129.449 36.5413 129.492 36.6107 129.492 36.696C129.492 36.9627 129.06 37.096 128.196 37.096C127.769 37.096 127.455 37.032 127.252 36.904C127.06 36.7653 126.948 36.5093 126.916 36.136C126.489 36.8187 125.748 37.16 124.692 37.16C123.796 37.16 123.071 36.952 122.516 36.536C121.972 36.1093 121.7 35.512 121.7 34.744C121.689 33.9867 121.961 33.4 122.516 32.984C123.071 32.5573 123.769 32.344 124.612 32.344C125.38 32.344 125.999 32.5253 126.468 32.888L126.436 32.568C126.34 31.5867 126.169 30.872 125.924 30.424C125.679 29.976 125.289 29.752 124.756 29.752C124.425 29.752 124.148 29.8533 123.924 30.056C123.711 30.2587 123.561 30.4827 123.476 30.728C123.401 30.9627 123.289 31.1813 123.14 31.384C122.991 31.5867 122.804 31.688 122.58 31.688C122.345 31.688 122.153 31.624 122.004 31.496C121.865 31.3573 121.796 31.176 121.796 30.952C121.796 30.44 122.073 30.0133 122.628 29.672C123.193 29.3307 123.903 29.16 124.756 29.16C125.759 29.16 126.569 29.4587 127.188 30.056C127.807 30.6427 128.175 31.4533 128.292 32.488L128.612 35.56ZM125.22 36.552C125.657 36.552 126.009 36.392 126.276 36.072C126.553 35.752 126.681 35.3733 126.66 34.936L126.612 34.44C126.58 33.9813 126.425 33.6187 126.148 33.352C125.871 33.0853 125.519 32.952 125.092 32.952C124.644 32.952 124.281 33.096 124.004 33.384C123.727 33.6613 123.588 34.04 123.588 34.52C123.588 35.0853 123.737 35.5653 124.036 35.96C124.345 36.3547 124.74 36.552 125.22 36.552ZM129.984 29.656C129.845 29.7413 129.717 29.7253 129.6 29.608C129.493 29.48 129.498 29.3573 129.616 29.24C130.138 28.728 130.437 28.2587 130.512 27.832C130.544 27.6507 130.49 27.56 130.352 27.56C130.096 27.56 129.877 27.4533 129.696 27.24C129.525 27.0267 129.44 26.7547 129.44 26.424C129.44 26.0507 129.546 25.7467 129.76 25.512C129.984 25.2773 130.272 25.16 130.624 25.16C130.976 25.16 131.269 25.2933 131.504 25.56C131.749 25.816 131.872 26.1627 131.872 26.6C131.872 27.8053 131.242 28.824 129.984 29.656ZM135.417 37.144C134.425 37.144 133.62 36.9573 133.001 36.584C132.382 36.2 132.073 35.7733 132.073 35.304C132.073 35.0693 132.142 34.888 132.281 34.76C132.43 34.632 132.628 34.568 132.873 34.568C133.086 34.568 133.262 34.6373 133.401 34.776C133.55 34.9147 133.668 35.0853 133.753 35.288C133.838 35.4907 133.934 35.6933 134.041 35.896C134.158 36.088 134.329 36.2533 134.553 36.392C134.788 36.5307 135.076 36.6 135.417 36.6C135.854 36.6 136.206 36.4933 136.473 36.28C136.75 36.0667 136.889 35.7627 136.889 35.368C136.889 34.9733 136.729 34.6693 136.409 34.456C136.089 34.232 135.7 34.0667 135.241 33.96C134.793 33.8533 134.34 33.7307 133.881 33.592C133.422 33.4533 133.033 33.208 132.713 32.856C132.393 32.4933 132.233 32.0187 132.233 31.432C132.233 30.7813 132.526 30.2427 133.113 29.816C133.7 29.3787 134.452 29.16 135.369 29.16C136.318 29.16 137.086 29.3573 137.673 29.752C138.27 30.136 138.569 30.5733 138.569 31.064C138.569 31.2667 138.5 31.432 138.361 31.56C138.222 31.688 138.046 31.752 137.833 31.752C137.63 31.752 137.46 31.6827 137.321 31.544C137.193 31.4053 137.081 31.24 136.985 31.048C136.9 30.8453 136.804 30.648 136.697 30.456C136.601 30.2533 136.446 30.0827 136.233 29.944C136.03 29.8053 135.774 29.736 135.465 29.736C135.081 29.736 134.761 29.8533 134.505 30.088C134.249 30.3227 134.121 30.616 134.121 30.968C134.121 31.3627 134.281 31.672 134.601 31.896C134.921 32.12 135.305 32.2907 135.753 32.408C136.212 32.5147 136.67 32.6373 137.129 32.776C137.588 32.9147 137.977 33.16 138.297 33.512C138.617 33.864 138.777 34.3333 138.777 34.92C138.777 35.56 138.468 36.0933 137.849 36.52C137.241 36.936 136.43 37.144 135.417 37.144ZM147.089 37.16C145.937 37.16 144.961 36.7707 144.161 35.992C143.372 35.2027 142.977 34.248 142.977 33.128C142.977 31.944 143.366 30.9893 144.145 30.264C144.924 29.5387 145.878 29.1707 147.009 29.16C147.884 29.1493 148.636 29.3627 149.265 29.8C149.905 30.2267 150.225 30.7173 150.225 31.272C150.225 31.4747 150.156 31.6453 150.017 31.784C149.889 31.912 149.686 31.9707 149.409 31.96C149.153 31.9493 148.924 31.8267 148.721 31.592C148.518 31.3573 148.353 31.1067 148.225 30.84C148.097 30.5733 147.9 30.328 147.633 30.104C147.377 29.88 147.068 29.768 146.705 29.768C146.161 29.768 145.718 30.0027 145.377 30.472C145.036 30.9413 144.865 31.528 144.865 32.232C144.865 33.32 145.126 34.1947 145.649 34.856C146.172 35.5067 146.86 35.832 147.713 35.832C148.641 35.832 149.329 35.3947 149.777 34.52C149.862 34.392 149.974 34.344 150.113 34.376C150.252 34.408 150.31 34.504 150.289 34.664C150.204 35.3467 149.878 35.9333 149.313 36.424C148.758 36.9147 148.017 37.16 147.089 37.16ZM158.128 35.56C158.149 35.7947 158.208 35.9813 158.304 36.12C158.41 36.248 158.512 36.328 158.608 36.36C158.714 36.392 158.805 36.4347 158.88 36.488C158.965 36.5413 159.008 36.6107 159.008 36.696C159.008 36.9627 158.576 37.096 157.712 37.096C157.285 37.096 156.97 37.032 156.768 36.904C156.576 36.7653 156.464 36.5093 156.432 36.136C156.005 36.8187 155.264 37.16 154.208 37.16C153.312 37.16 152.586 36.952 152.032 36.536C151.488 36.1093 151.215 35.512 151.215 34.744C151.205 33.9867 151.477 33.4 152.032 32.984C152.586 32.5573 153.285 32.344 154.128 32.344C154.896 32.344 155.514 32.5253 155.984 32.888L155.952 32.568C155.856 31.5867 155.685 30.872 155.44 30.424C155.194 29.976 154.805 29.752 154.272 29.752C153.941 29.752 153.664 29.8533 153.44 30.056C153.226 30.2587 153.077 30.4827 152.992 30.728C152.917 30.9627 152.805 31.1813 152.656 31.384C152.506 31.5867 152.32 31.688 152.096 31.688C151.861 31.688 151.669 31.624 151.52 31.496C151.381 31.3573 151.312 31.176 151.312 30.952C151.312 30.44 151.589 30.0133 152.144 29.672C152.709 29.3307 153.418 29.16 154.272 29.16C155.274 29.16 156.085 29.4587 156.704 30.056C157.322 30.6427 157.69 31.4533 157.808 32.488L158.128 35.56ZM154.736 36.552C155.173 36.552 155.525 36.392 155.792 36.072C156.069 35.752 156.197 35.3733 156.176 34.936L156.128 34.44C156.096 33.9813 155.941 33.6187 155.664 33.352C155.386 33.0853 155.034 32.952 154.608 32.952C154.16 32.952 153.797 33.096 153.52 33.384C153.242 33.6613 153.104 34.04 153.104 34.52C153.104 35.0853 153.253 35.5653 153.552 35.96C153.861 36.3547 154.256 36.552 154.736 36.552ZM164.007 29.16C164.466 29.16 164.823 29.288 165.079 29.544C165.346 29.8 165.479 30.12 165.479 30.504C165.479 31.176 165.202 31.512 164.647 31.512C164.413 31.512 164.231 31.448 164.103 31.32C163.975 31.192 163.895 31.048 163.863 30.888C163.831 30.728 163.757 30.584 163.639 30.456C163.522 30.328 163.362 30.264 163.159 30.264C162.807 30.264 162.535 30.456 162.343 30.84C162.151 31.224 162.055 31.6933 162.055 32.248V35.672C162.055 35.9067 162.178 36.1147 162.423 36.296C162.669 36.4773 162.791 36.616 162.791 36.712V36.776C162.791 36.9253 162.679 37 162.455 37H159.975C159.751 37 159.639 36.9253 159.639 36.776V36.712C159.639 36.616 159.741 36.4773 159.943 36.296C160.146 36.1147 160.247 35.9067 160.247 35.672V31.368C160.247 31.1227 160.13 30.9147 159.895 30.744C159.671 30.5627 159.559 30.424 159.559 30.328V30.28C159.559 30.1627 159.655 30.0507 159.847 29.944L161.415 29.224C161.725 29.0747 161.879 29.1653 161.879 29.496V30.744C162.242 29.688 162.951 29.16 164.007 29.16ZM172.399 34.648C172.484 34.5307 172.591 34.488 172.719 34.52C172.857 34.552 172.921 34.648 172.911 34.808C172.825 35.3733 172.495 35.9067 171.919 36.408C171.343 36.9093 170.591 37.16 169.663 37.16C168.575 37.16 167.668 36.7867 166.943 36.04C166.228 35.2933 165.871 34.312 165.871 33.096C165.871 31.9653 166.239 31.0267 166.975 30.28C167.721 29.5333 168.628 29.16 169.695 29.16C170.655 29.16 171.391 29.4 171.903 29.88C172.425 30.3493 172.687 30.8933 172.687 31.512C172.687 32.0667 172.415 32.44 171.871 32.632L167.999 34.056C168.201 34.6107 168.505 35.0427 168.911 35.352C169.316 35.6613 169.796 35.816 170.351 35.816C170.831 35.816 171.247 35.7093 171.599 35.496C171.961 35.272 172.228 34.9893 172.399 34.648ZM169.375 29.768C168.873 29.768 168.473 30.008 168.175 30.488C167.876 30.968 167.727 31.5973 167.727 32.376C167.727 32.7387 167.759 33.08 167.823 33.4L170.479 32.248C170.756 32.12 170.895 31.896 170.895 31.576C170.895 31.192 170.745 30.7973 170.447 30.392C170.159 29.976 169.801 29.768 169.375 29.768ZM181.775 29.16C182.788 29.16 183.657 29.5173 184.383 30.232C185.119 30.936 185.487 31.8693 185.487 33.032C185.487 34.2267 185.124 35.2133 184.399 35.992C183.684 36.7707 182.815 37.16 181.791 37.16C180.927 37.16 180.223 36.8773 179.679 36.312V39.208C179.679 39.4427 179.785 39.6507 179.999 39.832C180.223 40.024 180.335 40.168 180.335 40.264V40.312C180.335 40.472 180.217 40.552 179.983 40.552H177.551C177.316 40.552 177.199 40.472 177.199 40.312V40.264C177.199 40.168 177.3 40.024 177.503 39.832C177.705 39.6507 177.807 39.4427 177.807 39.208V31.368C177.807 31.144 177.689 30.9467 177.455 30.776C177.231 30.6053 177.119 30.4667 177.119 30.36V30.296C177.119 30.1573 177.215 30.0453 177.407 29.96L178.879 29.24C179.231 29.0587 179.407 29.144 179.407 29.496L179.391 30.376C179.615 29.992 179.935 29.6933 180.351 29.48C180.767 29.2667 181.241 29.16 181.775 29.16ZM181.567 36.552C182.207 36.552 182.703 36.296 183.055 35.784C183.417 35.272 183.599 34.552 183.599 33.624C183.599 32.472 183.385 31.544 182.959 30.84C182.543 30.1253 181.993 29.768 181.311 29.768C180.905 29.768 180.543 29.9173 180.223 30.216C179.913 30.504 179.732 30.872 179.679 31.32V34.28C179.679 34.8667 179.871 35.3947 180.255 35.864C180.639 36.3227 181.076 36.552 181.567 36.552ZM186.848 37C186.624 37 186.512 36.92 186.512 36.76V36.712C186.512 36.6053 186.608 36.4613 186.8 36.28C187.003 36.0987 187.104 35.896 187.104 35.672V27.24C187.104 26.984 187.003 26.7547 186.8 26.552C186.608 26.3493 186.512 26.216 186.512 26.152V26.104C186.512 26.008 186.603 25.912 186.784 25.816L188.4 25.016C188.581 24.9413 188.72 24.936 188.816 25C188.923 25.0533 188.976 25.144 188.976 25.272V35.672C188.976 35.896 189.083 36.104 189.296 36.296C189.52 36.4773 189.632 36.616 189.632 36.712V36.76C189.632 36.92 189.515 37 189.28 37H186.848ZM197.549 35.56C197.571 35.7947 197.629 35.9813 197.725 36.12C197.832 36.248 197.933 36.328 198.029 36.36C198.136 36.392 198.227 36.4347 198.301 36.488C198.387 36.5413 198.429 36.6107 198.429 36.696C198.429 36.9627 197.997 37.096 197.133 37.096C196.707 37.096 196.392 37.032 196.189 36.904C195.997 36.7653 195.885 36.5093 195.853 36.136C195.427 36.8187 194.685 37.16 193.629 37.16C192.733 37.16 192.008 36.952 191.453 36.536C190.909 36.1093 190.637 35.512 190.637 34.744C190.627 33.9867 190.899 33.4 191.453 32.984C192.008 32.5573 192.707 32.344 193.549 32.344C194.317 32.344 194.936 32.5253 195.405 32.888L195.373 32.568C195.277 31.5867 195.107 30.872 194.861 30.424C194.616 29.976 194.227 29.752 193.693 29.752C193.363 29.752 193.085 29.8533 192.861 30.056C192.648 30.2587 192.499 30.4827 192.413 30.728C192.339 30.9627 192.227 31.1813 192.077 31.384C191.928 31.5867 191.741 31.688 191.517 31.688C191.283 31.688 191.091 31.624 190.941 31.496C190.803 31.3573 190.733 31.176 190.733 30.952C190.733 30.44 191.011 30.0133 191.565 29.672C192.131 29.3307 192.84 29.16 193.693 29.16C194.696 29.16 195.507 29.4587 196.125 30.056C196.744 30.6427 197.112 31.4533 197.229 32.488L197.549 35.56ZM194.157 36.552C194.595 36.552 194.947 36.392 195.213 36.072C195.491 35.752 195.619 35.3733 195.597 34.936L195.549 34.44C195.517 33.9813 195.363 33.6187 195.085 33.352C194.808 33.0853 194.456 32.952 194.029 32.952C193.581 32.952 193.219 33.096 192.941 33.384C192.664 33.6613 192.525 34.04 192.525 34.52C192.525 35.0853 192.675 35.5653 192.973 35.96C193.283 36.3547 193.677 36.552 194.157 36.552ZM206.965 35.656C206.976 35.8907 207.072 36.104 207.253 36.296C207.445 36.4773 207.541 36.616 207.541 36.712V36.776C207.541 36.936 207.424 37.016 207.189 37.016H204.853C204.618 37.016 204.501 36.936 204.501 36.776V36.712C204.501 36.616 204.597 36.4773 204.789 36.296C204.992 36.104 205.088 35.8907 205.077 35.656L204.917 32.568C204.842 30.808 204.282 29.928 203.237 29.928C202.736 29.928 202.33 30.1147 202.021 30.488C201.712 30.8507 201.557 31.3253 201.557 31.912V35.672C201.557 35.9067 201.664 36.1147 201.877 36.296C202.101 36.4773 202.213 36.616 202.213 36.712V36.776C202.213 36.936 202.096 37.016 201.861 37.016H199.381C199.157 37.016 199.045 36.936 199.045 36.776V36.712C199.045 36.616 199.152 36.4773 199.365 36.296C199.578 36.1147 199.685 35.9067 199.685 35.672V31.384C199.685 31.1813 199.621 31.016 199.493 30.888C199.376 30.76 199.258 30.6587 199.141 30.584C199.024 30.4987 198.965 30.408 198.965 30.312V30.264C198.965 30.1573 199.061 30.0613 199.253 29.976L200.805 29.224C200.976 29.1493 201.098 29.144 201.173 29.208C201.258 29.2613 201.301 29.3627 201.301 29.512V30.552C201.525 30.1147 201.85 29.7733 202.277 29.528C202.704 29.2827 203.189 29.16 203.733 29.16C204.554 29.16 205.248 29.4427 205.813 30.008C206.378 30.5733 206.698 31.448 206.773 32.632L206.965 35.656Z" fill="black"></path><path d="M31.69 171.978C31.7273 172.183 31.83 172.356 31.998 172.496C32.1753 172.627 32.264 172.729 32.264 172.804V172.832C32.264 172.944 32.166 173 31.97 173H30.248C30.0613 173 29.968 172.944 29.968 172.832V172.804C29.968 172.739 30.0147 172.673 30.108 172.608C30.2013 172.543 30.2853 172.463 30.36 172.37C30.4347 172.267 30.458 172.137 30.43 171.978L29.198 164.992L26.384 172.692C26.3 172.888 26.1787 172.986 26.02 172.986C25.852 172.986 25.726 172.893 25.642 172.706L22.8 164.824L21.596 171.978C21.5773 172.099 21.5913 172.207 21.638 172.3C21.6847 172.384 21.7453 172.449 21.82 172.496C21.8947 172.533 21.9647 172.58 22.03 172.636C22.0953 172.692 22.128 172.748 22.128 172.804V172.832C22.128 172.944 22.0347 173 21.848 173H20.574C20.3873 173 20.294 172.944 20.294 172.832V172.804C20.294 172.729 20.378 172.622 20.546 172.482C20.714 172.342 20.8167 172.174 20.854 171.978L22.212 164.068C22.24 163.881 22.17 163.723 22.002 163.592C21.834 163.452 21.75 163.345 21.75 163.27V163.242C21.75 163.121 21.8293 163.06 21.988 163.06H22.912C23.192 163.06 23.374 163.181 23.458 163.424L26.188 171.334L29.002 163.41C29.086 163.177 29.254 163.06 29.506 163.06H30.5C30.64 163.06 30.71 163.111 30.71 163.214V163.256C30.71 163.331 30.6587 163.405 30.556 163.48C30.4627 163.545 30.3787 163.634 30.304 163.746C30.2293 163.858 30.206 164.003 30.234 164.18L31.69 171.978ZM38.533 171.026C38.5984 170.923 38.687 170.886 38.799 170.914C38.911 170.933 38.9577 171.007 38.939 171.138C38.8364 171.633 38.5377 172.09 38.043 172.51C37.5484 172.93 36.8997 173.14 36.097 173.14C35.173 173.14 34.3984 172.813 33.773 172.16C33.157 171.507 32.849 170.648 32.849 169.584C32.849 168.604 33.1664 167.787 33.801 167.134C34.4357 166.471 35.2197 166.14 36.153 166.14C36.9464 166.14 37.5764 166.355 38.043 166.784C38.519 167.204 38.757 167.68 38.757 168.212C38.757 168.613 38.5377 168.889 38.099 169.038L34.221 170.312C34.3797 170.919 34.6597 171.395 35.061 171.74C35.4717 172.076 35.9617 172.244 36.531 172.244C37.4924 172.244 38.1597 171.838 38.533 171.026ZM35.943 166.588C35.383 166.588 34.9304 166.831 34.585 167.316C34.2397 167.801 34.067 168.408 34.067 169.136C34.067 169.416 34.0857 169.654 34.123 169.85L37.245 168.73C37.469 168.637 37.581 168.473 37.581 168.24C37.581 167.885 37.4177 167.521 37.091 167.148C36.7737 166.775 36.391 166.588 35.943 166.588ZM46.2767 172.02C46.2767 172.207 46.3607 172.37 46.5287 172.51C46.706 172.65 46.7947 172.748 46.7947 172.804V172.846C46.7947 172.949 46.7247 173 46.5847 173H45.4087C45.2687 173 45.1894 172.925 45.1707 172.776L45.1427 172.076C44.9094 172.421 44.6014 172.687 44.2187 172.874C43.8454 173.051 43.444 173.14 43.0147 173.14C42.128 173.14 41.3674 172.813 40.7327 172.16C40.098 171.507 39.7807 170.662 39.7807 169.626C39.7807 168.609 40.0934 167.773 40.7187 167.12C41.344 166.467 42.1234 166.14 43.0567 166.14C43.878 166.14 44.5547 166.443 45.0867 167.05V163.998C45.0867 163.83 45.0354 163.695 44.9327 163.592C44.8394 163.489 44.7414 163.41 44.6387 163.354C44.5454 163.298 44.4987 163.237 44.4987 163.172V163.144C44.4987 163.051 44.5687 162.971 44.7087 162.906L45.8427 162.528C46.132 162.416 46.2767 162.486 46.2767 162.738V172.02ZM43.3087 172.678C43.7567 172.678 44.1627 172.501 44.5267 172.146C44.9 171.782 45.0867 171.287 45.0867 170.662H45.1007L45.0867 169.948V168.548C45.0867 168.072 44.8814 167.629 44.4707 167.218C44.0694 166.798 43.5934 166.588 43.0427 166.588C42.436 166.588 41.9414 166.831 41.5587 167.316C41.1854 167.792 40.994 168.422 40.9847 169.206C40.966 170.177 41.176 170.998 41.6147 171.67C42.0534 172.333 42.618 172.669 43.3087 172.678ZM48.9417 164.95C48.6524 164.95 48.4237 164.871 48.2557 164.712C48.0877 164.553 48.0037 164.343 48.0037 164.082C48.0037 163.821 48.0877 163.611 48.2557 163.452C48.4331 163.284 48.6617 163.2 48.9417 163.2C49.2124 163.2 49.4317 163.284 49.5997 163.452C49.7677 163.611 49.8517 163.821 49.8517 164.082C49.8517 164.343 49.7677 164.553 49.5997 164.712C49.4317 164.871 49.2124 164.95 48.9417 164.95ZM48.1297 173C47.9524 173 47.8637 172.939 47.8637 172.818V172.762C47.8637 172.697 47.9057 172.636 47.9897 172.58C48.0737 172.515 48.1577 172.44 48.2417 172.356C48.3257 172.263 48.3677 172.146 48.3677 172.006V167.834C48.3677 167.619 48.2837 167.433 48.1157 167.274C47.9477 167.115 47.8637 167.013 47.8637 166.966V166.938C47.8637 166.873 47.9337 166.803 48.0737 166.728L49.1517 166.196C49.3011 166.14 49.4084 166.131 49.4737 166.168C49.5484 166.205 49.5857 166.28 49.5857 166.392V172.006C49.5857 172.118 49.6137 172.216 49.6697 172.3C49.7257 172.375 49.7911 172.431 49.8657 172.468C49.9404 172.505 50.0057 172.552 50.0617 172.608C50.1177 172.655 50.1457 172.706 50.1457 172.762V172.818C50.1457 172.939 50.0477 173 49.8517 173H48.1297ZM54.572 173.14C53.592 173.14 52.7613 172.804 52.08 172.132C51.408 171.451 51.072 170.606 51.072 169.598C51.072 168.571 51.3987 167.741 52.052 167.106C52.7147 166.471 53.536 166.149 54.516 166.14C55.244 166.131 55.8787 166.317 56.42 166.7C56.9707 167.073 57.246 167.465 57.246 167.876C57.246 168.212 57.0593 168.375 56.686 168.366C56.5087 168.357 56.3407 168.263 56.182 168.086C56.0327 167.899 55.8973 167.699 55.776 167.484C55.664 167.26 55.4773 167.055 55.216 166.868C54.964 166.681 54.656 166.588 54.292 166.588C53.7133 166.588 53.2373 166.826 52.864 167.302C52.4907 167.769 52.304 168.352 52.304 169.052C52.304 170.023 52.5513 170.802 53.046 171.39C53.5407 171.969 54.18 172.258 54.964 172.258C55.4213 172.258 55.8133 172.137 56.14 171.894C56.476 171.642 56.7327 171.325 56.91 170.942C56.966 170.83 57.0547 170.788 57.176 170.816C57.2973 170.844 57.344 170.923 57.316 171.054C57.204 171.623 56.9053 172.113 56.42 172.524C55.944 172.935 55.328 173.14 54.572 173.14ZM63.9654 171.88C63.984 172.076 64.0354 172.23 64.1194 172.342C64.2034 172.445 64.292 172.51 64.3854 172.538C64.4787 172.557 64.5627 172.585 64.6374 172.622C64.712 172.659 64.7494 172.715 64.7494 172.79C64.7494 172.986 64.4507 173.084 63.8534 173.084C63.5174 173.084 63.27 173.023 63.1114 172.902C62.9527 172.771 62.8594 172.524 62.8314 172.16C62.4767 172.813 61.8047 173.14 60.8154 173.14C60.0314 173.14 59.4014 172.953 58.9254 172.58C58.4494 172.207 58.2114 171.689 58.2114 171.026C58.202 170.373 58.4354 169.864 58.9114 169.5C59.3967 169.136 60.0174 168.954 60.7734 168.954C61.52 168.954 62.094 169.141 62.4954 169.514L62.4674 169.136C62.3834 168.277 62.2107 167.638 61.9494 167.218C61.688 166.798 61.2867 166.588 60.7454 166.588C60.4187 166.588 60.148 166.672 59.9334 166.84C59.7187 167.008 59.5694 167.19 59.4854 167.386C59.4107 167.582 59.3174 167.764 59.2054 167.932C59.0934 168.1 58.9627 168.184 58.8134 168.184C58.6454 168.184 58.51 168.137 58.4074 168.044C58.314 167.951 58.2674 167.825 58.2674 167.666C58.2674 167.274 58.496 166.924 58.9534 166.616C59.42 166.299 60.0174 166.14 60.7454 166.14C61.5947 166.14 62.2714 166.401 62.7754 166.924C63.2887 167.437 63.592 168.161 63.6854 169.094L63.9654 171.88ZM61.1234 172.692C61.5807 172.692 61.954 172.547 62.2434 172.258C62.5327 171.959 62.668 171.591 62.6494 171.152L62.5934 170.522C62.5187 170.186 62.3414 169.915 62.0614 169.71C61.7907 169.505 61.4547 169.402 61.0534 169.402C60.5774 169.402 60.19 169.537 59.8914 169.808C59.5927 170.079 59.4434 170.429 59.4434 170.858C59.4434 171.381 59.5974 171.819 59.9054 172.174C60.2227 172.519 60.6287 172.692 61.1234 172.692ZM67.7724 173.14C67.2124 173.14 66.769 172.963 66.4424 172.608C66.125 172.244 65.9664 171.717 65.9664 171.026V166.84H65.0424C64.9024 166.84 64.8324 166.77 64.8324 166.63V166.49C64.8324 166.35 64.9024 166.28 65.0424 166.28H65.5464C66.181 166.28 66.5357 165.837 66.6104 164.95C66.629 164.763 66.7084 164.67 66.8484 164.67H66.9884C67.1377 164.67 67.2124 164.763 67.2124 164.95L67.2264 166.28H69.1584C69.2144 166.28 69.261 166.303 69.2984 166.35C69.345 166.387 69.3684 166.434 69.3684 166.49V166.63C69.3684 166.77 69.2984 166.84 69.1584 166.84H67.2264V171.04C67.2264 171.413 67.3057 171.703 67.4644 171.908C67.623 172.113 67.8377 172.216 68.1084 172.216C68.407 172.216 68.645 172.141 68.8224 171.992C69.009 171.833 69.1164 171.628 69.1444 171.376C69.191 171.264 69.2704 171.217 69.3824 171.236C69.5037 171.245 69.5644 171.311 69.5644 171.432C69.5644 171.889 69.3964 172.291 69.0604 172.636C68.7337 172.972 68.3044 173.14 67.7724 173.14ZM71.4046 164.95C71.1153 164.95 70.8866 164.871 70.7186 164.712C70.5506 164.553 70.4666 164.343 70.4666 164.082C70.4666 163.821 70.5506 163.611 70.7186 163.452C70.8959 163.284 71.1246 163.2 71.4046 163.2C71.6753 163.2 71.8946 163.284 72.0626 163.452C72.2306 163.611 72.3146 163.821 72.3146 164.082C72.3146 164.343 72.2306 164.553 72.0626 164.712C71.8946 164.871 71.6753 164.95 71.4046 164.95ZM70.5926 173C70.4153 173 70.3266 172.939 70.3266 172.818V172.762C70.3266 172.697 70.3686 172.636 70.4526 172.58C70.5366 172.515 70.6206 172.44 70.7046 172.356C70.7886 172.263 70.8306 172.146 70.8306 172.006V167.834C70.8306 167.619 70.7466 167.433 70.5786 167.274C70.4106 167.115 70.3266 167.013 70.3266 166.966V166.938C70.3266 166.873 70.3966 166.803 70.5366 166.728L71.6146 166.196C71.7639 166.14 71.8713 166.131 71.9366 166.168C72.0113 166.205 72.0486 166.28 72.0486 166.392V172.006C72.0486 172.118 72.0766 172.216 72.1326 172.3C72.1886 172.375 72.2539 172.431 72.3286 172.468C72.4033 172.505 72.4686 172.552 72.5246 172.608C72.5806 172.655 72.6086 172.706 72.6086 172.762V172.818C72.6086 172.939 72.5106 173 72.3146 173H70.5926ZM77.2449 173.14C76.1622 173.14 75.2802 172.79 74.5989 172.09C73.9269 171.381 73.5909 170.531 73.5909 169.542C73.5909 168.571 73.9176 167.764 74.5709 167.12C75.2242 166.467 76.0316 166.14 76.9929 166.14C78.0289 166.14 78.8782 166.485 79.5409 167.176C80.2129 167.857 80.5489 168.697 80.5489 169.696C80.5489 170.676 80.2409 171.497 79.6249 172.16C79.0089 172.813 78.2156 173.14 77.2449 173.14ZM77.4129 172.678C77.9636 172.678 78.4162 172.445 78.7709 171.978C79.1349 171.511 79.3169 170.891 79.3169 170.116C79.3169 169.127 79.0836 168.296 78.6169 167.624C78.1502 166.943 77.5622 166.602 76.8529 166.602C76.2556 166.602 75.7702 166.835 75.3969 167.302C75.0236 167.759 74.8369 168.375 74.8369 169.15C74.8369 170.083 75.0796 170.905 75.5649 171.614C76.0502 172.323 76.6662 172.678 77.4129 172.678ZM88.2409 171.992C88.2503 172.141 88.2969 172.263 88.3809 172.356C88.4649 172.449 88.5443 172.529 88.6189 172.594C88.7029 172.65 88.7449 172.711 88.7449 172.776V172.832C88.7449 172.953 88.6469 173.014 88.4509 173.014H86.7849C86.5889 173.014 86.4909 172.953 86.4909 172.832V172.776C86.4909 172.711 86.5749 172.613 86.7429 172.482C86.9203 172.351 87.0043 172.193 86.9949 172.006L86.8549 169.206C86.8176 168.375 86.6449 167.75 86.3369 167.33C86.0383 166.901 85.6369 166.686 85.1329 166.686C84.6196 166.686 84.1996 166.868 83.8729 167.232C83.5463 167.596 83.3829 168.058 83.3829 168.618V172.02C83.3829 172.132 83.4109 172.23 83.4669 172.314C83.5323 172.389 83.5976 172.445 83.6629 172.482C83.7283 172.519 83.7889 172.566 83.8449 172.622C83.9103 172.669 83.9429 172.72 83.9429 172.776V172.832C83.9429 172.953 83.8449 173.014 83.6489 173.014H81.8989C81.7123 173.014 81.6189 172.953 81.6189 172.832V172.776C81.6189 172.701 81.7076 172.603 81.8849 172.482C82.0716 172.361 82.1649 172.207 82.1649 172.02V167.778C82.1649 167.601 82.1136 167.465 82.0109 167.372C81.9176 167.269 81.8196 167.19 81.7169 167.134C81.6236 167.078 81.5769 167.017 81.5769 166.952V166.91C81.5769 166.826 81.6516 166.756 81.8009 166.7L82.8509 166.196C82.9816 166.131 83.0796 166.121 83.1449 166.168C83.2103 166.215 83.2429 166.294 83.2429 166.406V167.428C83.4483 167.036 83.7423 166.723 84.1249 166.49C84.5169 166.257 84.9509 166.14 85.4269 166.14C86.1549 166.14 86.7616 166.397 87.2469 166.91C87.7416 167.423 88.0216 168.198 88.0869 169.234L88.2409 171.992Z" fill="black"></path><path d="M23.332 85C23.1453 85 23.052 84.944 23.052 84.832V84.804C23.052 84.7387 23.136 84.6407 23.304 84.51C23.4813 84.37 23.57 84.2067 23.57 84.02V75.662H21.666C21.5073 75.662 21.3627 75.7413 21.232 75.9C21.1107 76.0587 21.0173 76.2313 20.952 76.418C20.8867 76.6047 20.8073 76.7773 20.714 76.936C20.63 77.0947 20.546 77.174 20.462 77.174H20.336C20.1867 77.174 20.126 77.0807 20.154 76.894L20.378 75.368C20.406 75.1627 20.5227 75.06 20.728 75.06H27.686C27.882 75.06 28.0033 75.1627 28.05 75.368L28.358 76.908C28.3953 77.0853 28.3393 77.174 28.19 77.174H28.05C27.966 77.174 27.8727 77.0947 27.77 76.936C27.6767 76.7773 27.5927 76.6047 27.518 76.418C27.4433 76.2313 27.336 76.0587 27.196 75.9C27.0653 75.7413 26.9207 75.662 26.762 75.662H24.83V84.02C24.83 84.16 24.872 84.2767 24.956 84.37C25.0493 84.4633 25.1427 84.5427 25.236 84.608C25.3293 84.6733 25.376 84.7387 25.376 84.804V84.832C25.376 84.944 25.278 85 25.082 85H23.332ZM33.1327 83.026C33.198 82.9233 33.2867 82.886 33.3987 82.914C33.5107 82.9327 33.5573 83.0073 33.5387 83.138C33.436 83.6327 33.1373 84.09 32.6427 84.51C32.148 84.93 31.4993 85.14 30.6967 85.14C29.7727 85.14 28.998 84.8133 28.3727 84.16C27.7567 83.5067 27.4487 82.648 27.4487 81.584C27.4487 80.604 27.766 79.7873 28.4007 79.134C29.0353 78.4713 29.8193 78.14 30.7527 78.14C31.546 78.14 32.176 78.3547 32.6427 78.784C33.1187 79.204 33.3567 79.68 33.3567 80.212C33.3567 80.6133 33.1373 80.8887 32.6987 81.038L28.8207 82.312C28.9793 82.9187 29.2593 83.3947 29.6607 83.74C30.0713 84.076 30.5613 84.244 31.1307 84.244C32.092 84.244 32.7593 83.838 33.1327 83.026ZM30.5427 78.588C29.9827 78.588 29.53 78.8307 29.1847 79.316C28.8393 79.8013 28.6667 80.408 28.6667 81.136C28.6667 81.416 28.6853 81.654 28.7227 81.85L31.8447 80.73C32.0687 80.6367 32.1807 80.4733 32.1807 80.24C32.1807 79.8853 32.0173 79.5213 31.6907 79.148C31.3733 78.7747 30.9907 78.588 30.5427 78.588ZM37.1803 85.126C36.3216 85.126 35.631 84.9533 35.1083 84.608C34.595 84.2627 34.3383 83.9033 34.3383 83.53C34.3383 83.1847 34.5203 83.012 34.8843 83.012C35.043 83.012 35.169 83.0727 35.2623 83.194C35.365 83.306 35.4536 83.446 35.5283 83.614C35.603 83.782 35.6916 83.95 35.7943 84.118C35.9063 84.286 36.079 84.4307 36.3123 84.552C36.5456 84.664 36.835 84.72 37.1803 84.72C37.647 84.72 38.0296 84.6127 38.3283 84.398C38.627 84.174 38.7763 83.8707 38.7763 83.488C38.7763 83.1147 38.627 82.8253 38.3283 82.62C38.039 82.4147 37.6843 82.27 37.2643 82.186C36.8443 82.0927 36.4243 81.99 36.0043 81.878C35.5843 81.766 35.225 81.5607 34.9263 81.262C34.637 80.9633 34.4923 80.562 34.4923 80.058C34.4923 79.5167 34.7396 79.064 35.2343 78.7C35.729 78.3267 36.359 78.14 37.1243 78.14C37.9363 78.14 38.5943 78.3127 39.0983 78.658C39.6023 79.0033 39.8543 79.3813 39.8543 79.792C39.8543 79.932 39.803 80.0487 39.7003 80.142C39.607 80.2353 39.4903 80.282 39.3503 80.282C39.1823 80.282 39.0376 80.1933 38.9163 80.016C38.795 79.8387 38.6923 79.6427 38.6083 79.428C38.5336 79.2133 38.375 79.0173 38.1323 78.84C37.8896 78.6627 37.5723 78.574 37.1803 78.574C36.7696 78.574 36.4243 78.6907 36.1443 78.924C35.8736 79.1573 35.7383 79.4467 35.7383 79.792C35.7383 80.156 35.883 80.4407 36.1723 80.646C36.471 80.842 36.8303 80.9867 37.2503 81.08C37.6703 81.1733 38.0856 81.276 38.4963 81.388C38.9163 81.5 39.271 81.71 39.5603 82.018C39.859 82.3167 40.0083 82.7227 40.0083 83.236C40.0083 83.7773 39.747 84.23 39.2243 84.594C38.711 84.9487 38.0296 85.126 37.1803 85.126ZM43.4228 85.14C42.8628 85.14 42.4194 84.9627 42.0928 84.608C41.7754 84.244 41.6168 83.7167 41.6168 83.026V78.84H40.6928C40.5528 78.84 40.4828 78.77 40.4828 78.63V78.49C40.4828 78.35 40.5528 78.28 40.6928 78.28H41.1968C41.8314 78.28 42.1861 77.8367 42.2608 76.95C42.2794 76.7633 42.3588 76.67 42.4988 76.67H42.6388C42.7881 76.67 42.8628 76.7633 42.8628 76.95L42.8768 78.28H44.8088C44.8648 78.28 44.9114 78.3033 44.9488 78.35C44.9954 78.3873 45.0188 78.434 45.0188 78.49V78.63C45.0188 78.77 44.9488 78.84 44.8088 78.84H42.8768V83.04C42.8768 83.4133 42.9561 83.7027 43.1148 83.908C43.2734 84.1133 43.4881 84.216 43.7588 84.216C44.0574 84.216 44.2954 84.1413 44.4728 83.992C44.6594 83.8333 44.7668 83.628 44.7948 83.376C44.8414 83.264 44.9208 83.2173 45.0328 83.236C45.1541 83.2453 45.2148 83.3107 45.2148 83.432C45.2148 83.8893 45.0468 84.2907 44.7108 84.636C44.3841 84.972 43.9548 85.14 43.4228 85.14ZM48.651 85.126C47.7923 85.126 47.1017 84.9533 46.579 84.608C46.0657 84.2627 45.809 83.9033 45.809 83.53C45.809 83.1847 45.991 83.012 46.355 83.012C46.5137 83.012 46.6397 83.0727 46.733 83.194C46.8357 83.306 46.9243 83.446 46.999 83.614C47.0737 83.782 47.1623 83.95 47.265 84.118C47.377 84.286 47.5497 84.4307 47.783 84.552C48.0163 84.664 48.3057 84.72 48.651 84.72C49.1177 84.72 49.5003 84.6127 49.799 84.398C50.0977 84.174 50.247 83.8707 50.247 83.488C50.247 83.1147 50.0977 82.8253 49.799 82.62C49.5097 82.4147 49.155 82.27 48.735 82.186C48.315 82.0927 47.895 81.99 47.475 81.878C47.055 81.766 46.6957 81.5607 46.397 81.262C46.1077 80.9633 45.963 80.562 45.963 80.058C45.963 79.5167 46.2103 79.064 46.705 78.7C47.1997 78.3267 47.8297 78.14 48.595 78.14C49.407 78.14 50.065 78.3127 50.569 78.658C51.073 79.0033 51.325 79.3813 51.325 79.792C51.325 79.932 51.2737 80.0487 51.171 80.142C51.0777 80.2353 50.961 80.282 50.821 80.282C50.653 80.282 50.5083 80.1933 50.387 80.016C50.2657 79.8387 50.163 79.6427 50.079 79.428C50.0043 79.2133 49.8457 79.0173 49.603 78.84C49.3603 78.6627 49.043 78.574 48.651 78.574C48.2403 78.574 47.895 78.6907 47.615 78.924C47.3443 79.1573 47.209 79.4467 47.209 79.792C47.209 80.156 47.3537 80.4407 47.643 80.646C47.9417 80.842 48.301 80.9867 48.721 81.08C49.141 81.1733 49.5563 81.276 49.967 81.388C50.387 81.5 50.7417 81.71 51.031 82.018C51.3297 82.3167 51.479 82.7227 51.479 83.236C51.479 83.7773 51.2177 84.23 50.695 84.594C50.1817 84.9487 49.5003 85.126 48.651 85.126Z" fill="black"></path><path d="M119.404 75.018C118.004 75.018 116.856 75.508 115.946 76.474C115.036 77.44 114.588 78.644 114.588 80.1C114.588 81.556 115.036 82.774 115.946 83.74C116.856 84.706 118.004 85.182 119.418 85.182C120.804 85.182 121.896 84.776 122.666 83.978C123.436 83.18 123.828 82.074 123.828 80.674V80.114H119.614V80.996H122.862C122.848 83.222 121.504 84.314 119.418 84.314C118.284 84.314 117.36 83.922 116.632 83.124C115.918 82.326 115.554 81.318 115.554 80.1C115.554 78.882 115.918 77.888 116.632 77.09C117.36 76.292 118.284 75.886 119.404 75.886C121.084 75.886 122.19 76.684 122.638 77.972H123.674C123.114 76.124 121.574 75.018 119.404 75.018ZM128.281 77.818C127.287 77.818 126.489 78.168 125.887 78.854C125.285 79.54 124.991 80.422 124.991 81.5C124.991 82.592 125.299 83.474 125.915 84.146C126.545 84.818 127.343 85.154 128.309 85.154C129.877 85.154 130.955 84.37 131.389 83.012H130.479C130.143 83.894 129.429 84.328 128.323 84.328C126.965 84.328 125.957 83.348 125.887 81.822H131.473V81.332C131.473 79.092 130.199 77.818 128.281 77.818ZM128.281 78.644C129.681 78.644 130.577 79.554 130.577 81.024H125.887C125.999 79.624 126.937 78.644 128.281 78.644ZM136.16 77.818C135.208 77.818 134.424 78.378 134.144 79.036L134.102 77.972H133.29V85H134.172V81.094C134.172 79.624 134.942 78.672 136.02 78.672C136.986 78.672 137.574 79.33 137.574 80.548V85H138.456V80.464C138.456 78.882 137.63 77.818 136.16 77.818ZM140.647 77.972V85H141.529V77.972H140.647ZM141.095 75.06C140.703 75.06 140.409 75.368 140.409 75.746C140.409 76.124 140.703 76.418 141.095 76.418C141.473 76.418 141.781 76.124 141.781 75.746C141.781 75.368 141.473 75.06 141.095 75.06ZM144.195 76.18L144.181 77.972H142.781V78.798H144.181L144.153 83.18C144.139 84.524 144.741 85.098 145.973 85.098C146.393 85.098 146.729 85.042 146.967 84.944V84.146C146.673 84.244 146.365 84.286 146.071 84.286C145.245 84.286 145.021 83.922 145.021 83.068L145.049 78.798H146.967V77.972H145.063L145.077 76.18H144.195ZM150.733 77.818C149.991 77.818 149.403 78.042 148.941 78.49C148.493 78.924 148.269 79.484 148.255 80.156H149.137C149.137 79.162 149.795 78.644 150.733 78.644C151.741 78.644 152.245 79.204 152.245 80.338V80.8L149.963 81.276C148.689 81.542 148.059 82.2 148.059 83.278C148.059 84.398 148.829 85.154 150.047 85.154C151.069 85.154 151.895 84.65 152.273 83.978L152.301 85H153.141V80.31C153.141 78.728 152.287 77.818 150.733 77.818ZM152.245 82.186C152.245 82.704 152.091 83.166 151.783 83.572C151.377 84.076 150.831 84.328 150.159 84.328C149.389 84.328 148.955 83.936 148.955 83.264C148.955 82.55 149.361 82.242 150.131 82.06L152.245 81.598V82.186ZM155.317 74.78V85H156.199V74.78H155.317ZM167.95 75.2V81.164C167.95 83.264 166.998 84.314 165.108 84.314C163.218 84.314 162.266 83.264 162.266 81.164V75.2H161.342V81.164C161.342 83.796 162.714 85.182 165.108 85.182C167.516 85.182 168.888 83.796 168.888 81.164V75.2H167.95ZM171.067 74.78V85H171.949V74.78H171.067ZM176.981 77.818C176.015 77.818 175.203 78.168 174.573 78.868C173.943 79.554 173.635 80.436 173.635 81.5C173.635 82.55 173.943 83.418 174.573 84.118C175.203 84.804 176.015 85.154 176.981 85.154C178.493 85.154 179.655 84.37 180.047 82.97H179.137C178.843 83.81 178.017 84.328 177.009 84.328C176.295 84.328 175.707 84.062 175.231 83.516C174.769 82.97 174.531 82.298 174.531 81.5C174.531 80.674 174.769 80.002 175.231 79.456C175.693 78.91 176.281 78.644 176.995 78.644C178.003 78.644 178.843 79.148 179.137 80.002H180.047C179.669 78.602 178.507 77.818 176.981 77.818ZM184.445 77.818C183.451 77.818 182.653 78.168 182.051 78.854C181.449 79.54 181.155 80.422 181.155 81.5C181.155 82.592 181.463 83.474 182.079 84.146C182.709 84.818 183.507 85.154 184.473 85.154C186.041 85.154 187.119 84.37 187.553 83.012H186.643C186.307 83.894 185.593 84.328 184.487 84.328C183.129 84.328 182.121 83.348 182.051 81.822H187.637V81.332C187.637 79.092 186.363 77.818 184.445 77.818ZM184.445 78.644C185.845 78.644 186.741 79.554 186.741 81.024H182.051C182.163 79.624 183.101 78.644 184.445 78.644ZM192.548 77.902C191.428 77.902 190.7 78.504 190.42 79.246L190.392 77.972H189.566V85H190.448V81.192C190.448 80.394 190.672 79.778 191.12 79.344C191.498 78.966 191.974 78.77 192.548 78.77V77.902ZM196.974 75.2V85H200.418C201.916 85 203.12 84.552 204.002 83.67C204.898 82.774 205.346 81.584 205.346 80.1C205.346 78.616 204.898 77.426 204.002 76.544C203.12 75.648 201.916 75.2 200.418 75.2H196.974ZM200.418 76.068C201.636 76.068 202.616 76.432 203.33 77.16C204.044 77.874 204.408 78.854 204.408 80.1C204.408 81.346 204.044 82.34 203.316 83.054C202.602 83.768 201.636 84.132 200.418 84.132H197.898V76.068H200.418ZM207.174 77.972V85H208.056V77.972H207.174ZM207.622 75.06C207.23 75.06 206.936 75.368 206.936 75.746C206.936 76.124 207.23 76.418 207.622 76.418C208 76.418 208.308 76.124 208.308 75.746C208.308 75.368 208 75.06 207.622 75.06ZM212.249 77.818C210.863 77.818 210.023 78.672 210.023 79.792C210.023 80.898 210.681 81.402 212.137 81.78C213.411 82.102 213.817 82.438 213.817 83.124C213.817 83.838 213.313 84.328 212.361 84.328C211.339 84.328 210.751 83.824 210.737 82.942H209.827C209.841 84.272 210.779 85.154 212.333 85.154C213.733 85.154 214.713 84.356 214.713 83.082C214.713 82.004 214.055 81.444 212.431 80.996C211.829 80.842 211.437 80.674 211.227 80.52C211.017 80.352 210.919 80.1 210.919 79.75C210.919 79.078 211.381 78.644 212.221 78.644C213.103 78.644 213.551 79.078 213.565 79.932H214.475C214.461 78.63 213.579 77.818 212.249 77.818ZM219.171 77.818C218.177 77.818 217.379 78.168 216.777 78.854C216.175 79.54 215.881 80.422 215.881 81.5C215.881 82.592 216.189 83.474 216.805 84.146C217.435 84.818 218.233 85.154 219.199 85.154C220.767 85.154 221.845 84.37 222.279 83.012H221.369C221.033 83.894 220.319 84.328 219.213 84.328C217.855 84.328 216.847 83.348 216.777 81.822H222.363V81.332C222.363 79.092 221.089 77.818 219.171 77.818ZM219.171 78.644C220.571 78.644 221.467 79.554 221.467 81.024H216.777C216.889 79.624 217.827 78.644 219.171 78.644ZM226.407 77.818C225.665 77.818 225.077 78.042 224.615 78.49C224.167 78.924 223.943 79.484 223.929 80.156H224.811C224.811 79.162 225.469 78.644 226.407 78.644C227.415 78.644 227.919 79.204 227.919 80.338V80.8L225.637 81.276C224.363 81.542 223.733 82.2 223.733 83.278C223.733 84.398 224.503 85.154 225.721 85.154C226.743 85.154 227.569 84.65 227.947 83.978L227.975 85H228.815V80.31C228.815 78.728 227.961 77.818 226.407 77.818ZM227.919 82.186C227.919 82.704 227.765 83.166 227.457 83.572C227.051 84.076 226.505 84.328 225.833 84.328C225.063 84.328 224.629 83.936 224.629 83.264C224.629 82.55 225.035 82.242 225.805 82.06L227.919 81.598V82.186ZM232.838 77.818C231.452 77.818 230.612 78.672 230.612 79.792C230.612 80.898 231.27 81.402 232.726 81.78C234 82.102 234.406 82.438 234.406 83.124C234.406 83.838 233.902 84.328 232.95 84.328C231.928 84.328 231.34 83.824 231.326 82.942H230.416C230.43 84.272 231.368 85.154 232.922 85.154C234.322 85.154 235.302 84.356 235.302 83.082C235.302 82.004 234.644 81.444 233.02 80.996C232.418 80.842 232.026 80.674 231.816 80.52C231.606 80.352 231.508 80.1 231.508 79.75C231.508 79.078 231.97 78.644 232.81 78.644C233.692 78.644 234.14 79.078 234.154 79.932H235.064C235.05 78.63 234.168 77.818 232.838 77.818ZM239.761 77.818C238.767 77.818 237.969 78.168 237.367 78.854C236.765 79.54 236.471 80.422 236.471 81.5C236.471 82.592 236.779 83.474 237.395 84.146C238.025 84.818 238.823 85.154 239.789 85.154C241.357 85.154 242.435 84.37 242.869 83.012H241.959C241.623 83.894 240.909 84.328 239.803 84.328C238.445 84.328 237.437 83.348 237.367 81.822H242.953V81.332C242.953 79.092 241.679 77.818 239.761 77.818ZM239.761 78.644C241.161 78.644 242.057 79.554 242.057 81.024H237.367C237.479 79.624 238.417 78.644 239.761 78.644Z" fill="#7B7B7B"></path><path d="M182.402 119.018C180.778 119.018 179.714 120.152 179.714 121.944H180.638C180.638 120.586 181.338 119.886 182.388 119.886C183.522 119.886 184.082 120.488 184.082 121.692C184.082 122.546 183.83 123.162 183.06 124.128L179.826 128.314V129H185.244V128.132H181.1L183.858 124.548C184.628 123.526 185.02 122.56 185.02 121.664C185.02 120.026 184.082 119.018 182.402 119.018ZM194.083 121.972L192.193 124.646L190.317 121.972H189.267L191.619 125.346L189.071 129H190.135L192.193 126.074L194.265 129H195.329L192.767 125.346L195.133 121.972H194.083ZM211.106 119.2L208.614 126.788L208.432 127.488L208.278 126.788L205.87 119.2H205.142L202.748 126.788L202.58 127.488L202.412 126.788L199.92 119.2H198.94L202.146 129H202.986L205.338 121.566L205.506 120.922L205.674 121.566L208.04 129H208.88L212.072 119.2H211.106ZM215.443 121.818C214.449 121.818 213.651 122.168 213.049 122.854C212.447 123.54 212.153 124.422 212.153 125.5C212.153 126.592 212.461 127.474 213.077 128.146C213.707 128.818 214.505 129.154 215.471 129.154C217.039 129.154 218.117 128.37 218.551 127.012H217.641C217.305 127.894 216.591 128.328 215.485 128.328C214.127 128.328 213.119 127.348 213.049 125.822H218.635V125.332C218.635 123.092 217.361 121.818 215.443 121.818ZM215.443 122.644C216.843 122.644 217.739 123.554 217.739 125.024H213.049C213.161 123.624 214.099 122.644 215.443 122.644ZM223.263 121.818C222.269 121.818 221.471 122.168 220.869 122.854C220.267 123.54 219.973 124.422 219.973 125.5C219.973 126.592 220.281 127.474 220.897 128.146C221.527 128.818 222.325 129.154 223.291 129.154C224.859 129.154 225.937 128.37 226.371 127.012H225.461C225.125 127.894 224.411 128.328 223.305 128.328C221.947 128.328 220.939 127.348 220.869 125.822H226.455V125.332C226.455 123.092 225.181 121.818 223.263 121.818ZM223.263 122.644C224.663 122.644 225.559 123.554 225.559 125.024H220.869C220.981 123.624 221.919 122.644 223.263 122.644ZM228.384 118.78V129H229.266V126.788L230.302 125.542L232.654 129H233.676L230.918 124.856L233.312 121.972H232.206L229.266 125.5V118.78H228.384ZM235.014 118.78V129H235.896V118.78H235.014ZM242.776 121.972L240.676 127.418L240.522 127.908L240.382 127.418L238.268 121.972H237.33L240.06 128.888L238.828 132.01H239.766L243.728 121.972H242.776Z" fill="#7B7B7B"></path><path d="M128.9 164.992L130.664 169.276H126.772L128.536 164.992L128.718 164.474L128.9 164.992ZM128.284 163.2L124.28 173H125.316L126.45 170.158H130.986L132.148 173H133.184L129.166 163.2H128.284ZM137.311 165.818C136.345 165.818 135.533 166.168 134.903 166.868C134.273 167.554 133.965 168.436 133.965 169.5C133.965 170.55 134.273 171.418 134.903 172.118C135.533 172.804 136.345 173.154 137.311 173.154C138.823 173.154 139.985 172.37 140.377 170.97H139.467C139.173 171.81 138.347 172.328 137.339 172.328C136.625 172.328 136.037 172.062 135.561 171.516C135.099 170.97 134.861 170.298 134.861 169.5C134.861 168.674 135.099 168.002 135.561 167.456C136.023 166.91 136.611 166.644 137.325 166.644C138.333 166.644 139.173 167.148 139.467 168.002H140.377C139.999 166.602 138.837 165.818 137.311 165.818ZM146.679 165.972L144.579 171.418L144.425 171.908L144.285 171.418L142.171 165.972H141.233L143.963 172.888L142.731 176.01H143.669L147.631 165.972H146.679ZM151.626 165.818C150.66 165.818 149.848 166.168 149.218 166.868C148.588 167.554 148.28 168.436 148.28 169.5C148.28 170.55 148.588 171.418 149.218 172.118C149.848 172.804 150.66 173.154 151.626 173.154C153.138 173.154 154.3 172.37 154.692 170.97H153.782C153.488 171.81 152.662 172.328 151.654 172.328C150.94 172.328 150.352 172.062 149.876 171.516C149.414 170.97 149.176 170.298 149.176 169.5C149.176 168.674 149.414 168.002 149.876 167.456C150.338 166.91 150.926 166.644 151.64 166.644C152.648 166.644 153.488 167.148 153.782 168.002H154.692C154.314 166.602 153.152 165.818 151.626 165.818ZM156.457 162.78V173H157.339V162.78H156.457ZM159.992 166.854C159.348 167.54 159.026 168.422 159.026 169.486C159.026 170.55 159.348 171.432 159.992 172.118C160.65 172.804 161.49 173.154 162.526 173.154C163.562 173.154 164.402 172.804 165.046 172.118C165.69 171.432 166.012 170.55 166.012 169.486C166.012 168.422 165.69 167.54 165.046 166.854C164.402 166.168 163.562 165.818 162.526 165.818C161.49 165.818 160.65 166.168 159.992 166.854ZM162.54 166.644C163.31 166.644 163.94 166.91 164.402 167.456C164.878 167.988 165.116 168.66 165.116 169.486C165.116 170.312 164.878 170.984 164.402 171.53C163.94 172.062 163.31 172.328 162.54 172.328C161.756 172.328 161.126 172.062 160.636 171.53C160.16 170.984 159.922 170.312 159.922 169.486C159.922 168.66 160.16 167.988 160.636 167.456C161.126 166.91 161.756 166.644 162.54 166.644ZM172.108 165.972L170.008 171.418L169.854 171.908L169.714 171.418L167.6 165.972H166.662L169.434 173H170.288L173.06 165.972H172.108ZM174.49 165.972V173H175.372V165.972H174.49ZM174.938 163.06C174.546 163.06 174.252 163.368 174.252 163.746C174.252 164.124 174.546 164.418 174.938 164.418C175.316 164.418 175.624 164.124 175.624 163.746C175.624 163.368 175.316 163.06 174.938 163.06ZM180.755 165.902C179.635 165.902 178.907 166.504 178.627 167.246L178.599 165.972H177.773V173H178.655V169.192C178.655 168.394 178.879 167.778 179.327 167.344C179.705 166.966 180.181 166.77 180.755 166.77V165.902ZM182.33 172.482C182.386 171.796 181.518 171.474 181.098 171.922C180.678 172.328 180.972 173.112 181.574 173.112C181.504 173.7 181.322 174.232 181.056 174.694L181.378 174.82C181.938 174.204 182.33 173.28 182.33 172.482ZM187.013 163.2V173H187.937V168.996H189.771C190.709 168.996 191.465 168.73 192.011 168.212C192.571 167.68 192.851 166.98 192.851 166.126C192.851 165.244 192.571 164.544 192.011 164.012C191.451 163.466 190.709 163.2 189.771 163.2H187.013ZM189.771 164.068C191.059 164.068 191.927 164.88 191.927 166.126C191.927 167.344 191.059 168.128 189.771 168.128H187.937V164.068H189.771ZM194.65 166.854C194.006 167.54 193.684 168.422 193.684 169.486C193.684 170.55 194.006 171.432 194.65 172.118C195.308 172.804 196.148 173.154 197.184 173.154C198.22 173.154 199.06 172.804 199.704 172.118C200.348 171.432 200.67 170.55 200.67 169.486C200.67 168.422 200.348 167.54 199.704 166.854C199.06 166.168 198.22 165.818 197.184 165.818C196.148 165.818 195.308 166.168 194.65 166.854ZM197.198 166.644C197.968 166.644 198.598 166.91 199.06 167.456C199.536 167.988 199.774 168.66 199.774 169.486C199.774 170.312 199.536 170.984 199.06 171.53C198.598 172.062 197.968 172.328 197.198 172.328C196.414 172.328 195.784 172.062 195.294 171.53C194.818 170.984 194.58 170.312 194.58 169.486C194.58 168.66 194.818 167.988 195.294 167.456C195.784 166.91 196.414 166.644 197.198 166.644ZM207.669 162.78V167.148C207.291 166.42 206.367 165.818 205.191 165.818C204.197 165.818 203.399 166.168 202.797 166.854C202.195 167.54 201.901 168.422 201.901 169.486C201.901 170.55 202.195 171.432 202.783 172.118C203.385 172.804 204.183 173.154 205.177 173.154C206.367 173.154 207.291 172.524 207.697 171.81L207.725 173H208.537V162.78H207.669ZM205.275 166.658C205.933 166.658 206.493 166.91 206.955 167.4C207.431 167.89 207.669 168.562 207.669 169.388V169.682C207.669 170.48 207.431 171.124 206.955 171.614C206.493 172.09 205.919 172.328 205.261 172.328C204.519 172.328 203.917 172.062 203.469 171.53C203.021 170.998 202.797 170.312 202.797 169.486C202.797 168.66 203.021 167.988 203.483 167.456C203.945 166.924 204.533 166.658 205.275 166.658ZM211.138 166.854C210.494 167.54 210.172 168.422 210.172 169.486C210.172 170.55 210.494 171.432 211.138 172.118C211.796 172.804 212.636 173.154 213.672 173.154C214.708 173.154 215.548 172.804 216.192 172.118C216.836 171.432 217.158 170.55 217.158 169.486C217.158 168.422 216.836 167.54 216.192 166.854C215.548 166.168 214.708 165.818 213.672 165.818C212.636 165.818 211.796 166.168 211.138 166.854ZM213.686 166.644C214.456 166.644 215.086 166.91 215.548 167.456C216.024 167.988 216.262 168.66 216.262 169.486C216.262 170.312 216.024 170.984 215.548 171.53C215.086 172.062 214.456 172.328 213.686 172.328C212.902 172.328 212.272 172.062 211.782 171.53C211.306 170.984 211.068 170.312 211.068 169.486C211.068 168.66 211.306 167.988 211.782 167.456C212.272 166.91 212.902 166.644 213.686 166.644ZM220.97 162.682C219.864 162.682 219.22 163.438 219.22 164.712V165.972H217.792V166.784H219.22V173H220.102V166.784H221.908V165.972H220.102V164.726C220.102 163.9 220.396 163.494 220.998 163.494C221.334 163.494 221.642 163.55 221.908 163.676V162.864C221.67 162.738 221.348 162.682 220.97 162.682ZM223.168 165.972V173H224.05V165.972H223.168ZM223.616 163.06C223.224 163.06 222.93 163.368 222.93 163.746C222.93 164.124 223.224 164.418 223.616 164.418C223.994 164.418 224.302 164.124 224.302 163.746C224.302 163.368 223.994 163.06 223.616 163.06ZM226.416 162.78V173H227.298V162.78H226.416ZM229.951 166.854C229.307 167.54 228.985 168.422 228.985 169.486C228.985 170.55 229.307 171.432 229.951 172.118C230.609 172.804 231.449 173.154 232.485 173.154C233.521 173.154 234.361 172.804 235.005 172.118C235.649 171.432 235.971 170.55 235.971 169.486C235.971 168.422 235.649 167.54 235.005 166.854C234.361 166.168 233.521 165.818 232.485 165.818C231.449 165.818 230.609 166.168 229.951 166.854ZM232.499 166.644C233.269 166.644 233.899 166.91 234.361 167.456C234.837 167.988 235.075 168.66 235.075 169.486C235.075 170.312 234.837 170.984 234.361 171.53C233.899 172.062 233.269 172.328 232.499 172.328C231.715 172.328 231.085 172.062 230.595 171.53C230.119 170.984 229.881 170.312 229.881 169.486C229.881 168.66 230.119 167.988 230.595 167.456C231.085 166.91 231.715 166.644 232.499 166.644ZM241.595 165.972L239.705 168.646L237.829 165.972H236.779L239.131 169.346L236.583 173H237.647L239.705 170.074L241.777 173H242.841L240.279 169.346L242.645 165.972H241.595Z" fill="#7B7B7B"></path><path d="M25.18 129.14C23.9387 129.14 22.842 128.617 21.89 127.572C20.938 126.527 20.462 125.313 20.462 123.932C20.462 122.467 20.896 121.267 21.764 120.334C22.6413 119.401 23.7567 118.934 25.11 118.934C26.1367 118.934 27.028 119.228 27.784 119.816C28.5493 120.395 28.932 120.964 28.932 121.524C28.932 121.711 28.876 121.86 28.764 121.972C28.6613 122.075 28.512 122.126 28.316 122.126C28.1293 122.126 27.9567 122.037 27.798 121.86C27.6487 121.673 27.4993 121.454 27.35 121.202C27.2007 120.95 27.028 120.698 26.832 120.446C26.6453 120.185 26.3747 119.965 26.02 119.788C25.6747 119.601 25.264 119.508 24.788 119.508C23.948 119.508 23.2247 119.858 22.618 120.558C22.0207 121.258 21.722 122.149 21.722 123.232C21.722 124.604 22.1 125.747 22.856 126.662C23.6213 127.567 24.5127 128.02 25.53 128.02C26.286 128.02 26.9207 127.791 27.434 127.334C27.9567 126.877 28.3487 126.331 28.61 125.696C28.694 125.547 28.8107 125.491 28.96 125.528C29.1093 125.565 29.1653 125.682 29.128 125.878C28.96 126.783 28.5307 127.553 27.84 128.188C27.1587 128.823 26.272 129.14 25.18 129.14ZM33.6043 129.14C32.5216 129.14 31.6396 128.79 30.9583 128.09C30.2863 127.381 29.9503 126.531 29.9503 125.542C29.9503 124.571 30.2769 123.764 30.9303 123.12C31.5836 122.467 32.3909 122.14 33.3523 122.14C34.3883 122.14 35.2376 122.485 35.9003 123.176C36.5723 123.857 36.9083 124.697 36.9083 125.696C36.9083 126.676 36.6003 127.497 35.9843 128.16C35.3683 128.813 34.5749 129.14 33.6043 129.14ZM33.7723 128.678C34.3229 128.678 34.7756 128.445 35.1303 127.978C35.4943 127.511 35.6763 126.891 35.6763 126.116C35.6763 125.127 35.4429 124.296 34.9763 123.624C34.5096 122.943 33.9216 122.602 33.2123 122.602C32.6149 122.602 32.1296 122.835 31.7563 123.302C31.3829 123.759 31.1963 124.375 31.1963 125.15C31.1963 126.083 31.4389 126.905 31.9243 127.614C32.4096 128.323 33.0256 128.678 33.7723 128.678ZM44.6003 127.992C44.6096 128.141 44.6563 128.263 44.7403 128.356C44.8243 128.449 44.9036 128.529 44.9783 128.594C45.0623 128.65 45.1043 128.711 45.1043 128.776V128.832C45.1043 128.953 45.0063 129.014 44.8103 129.014H43.1443C42.9483 129.014 42.8503 128.953 42.8503 128.832V128.776C42.8503 128.711 42.9343 128.613 43.1023 128.482C43.2796 128.351 43.3636 128.193 43.3543 128.006L43.2143 125.206C43.177 124.375 43.0043 123.75 42.6963 123.33C42.3976 122.901 41.9963 122.686 41.4923 122.686C40.979 122.686 40.559 122.868 40.2323 123.232C39.9056 123.596 39.7423 124.058 39.7423 124.618V128.02C39.7423 128.132 39.7703 128.23 39.8263 128.314C39.8916 128.389 39.957 128.445 40.0223 128.482C40.0876 128.519 40.1483 128.566 40.2043 128.622C40.2696 128.669 40.3023 128.72 40.3023 128.776V128.832C40.3023 128.953 40.2043 129.014 40.0083 129.014H38.2583C38.0716 129.014 37.9783 128.953 37.9783 128.832V128.776C37.9783 128.701 38.067 128.603 38.2443 128.482C38.431 128.361 38.5243 128.207 38.5243 128.02V123.778C38.5243 123.601 38.473 123.465 38.3703 123.372C38.277 123.269 38.179 123.19 38.0763 123.134C37.983 123.078 37.9363 123.017 37.9363 122.952V122.91C37.9363 122.826 38.011 122.756 38.1603 122.7L39.2103 122.196C39.341 122.131 39.439 122.121 39.5043 122.168C39.5696 122.215 39.6023 122.294 39.6023 122.406V123.428C39.8076 123.036 40.1016 122.723 40.4843 122.49C40.8763 122.257 41.3103 122.14 41.7863 122.14C42.5143 122.14 43.121 122.397 43.6063 122.91C44.101 123.423 44.381 124.198 44.4463 125.234L44.6003 127.992ZM48.7194 129.126C47.8607 129.126 47.17 128.953 46.6474 128.608C46.134 128.263 45.8774 127.903 45.8774 127.53C45.8774 127.185 46.0594 127.012 46.4234 127.012C46.582 127.012 46.708 127.073 46.8014 127.194C46.904 127.306 46.9927 127.446 47.0674 127.614C47.142 127.782 47.2307 127.95 47.3334 128.118C47.4454 128.286 47.618 128.431 47.8514 128.552C48.0847 128.664 48.374 128.72 48.7194 128.72C49.186 128.72 49.5687 128.613 49.8674 128.398C50.166 128.174 50.3154 127.871 50.3154 127.488C50.3154 127.115 50.166 126.825 49.8674 126.62C49.578 126.415 49.2234 126.27 48.8034 126.186C48.3834 126.093 47.9634 125.99 47.5434 125.878C47.1234 125.766 46.764 125.561 46.4654 125.262C46.176 124.963 46.0314 124.562 46.0314 124.058C46.0314 123.517 46.2787 123.064 46.7734 122.7C47.268 122.327 47.898 122.14 48.6634 122.14C49.4754 122.14 50.1334 122.313 50.6374 122.658C51.1414 123.003 51.3934 123.381 51.3934 123.792C51.3934 123.932 51.342 124.049 51.2394 124.142C51.146 124.235 51.0294 124.282 50.8894 124.282C50.7214 124.282 50.5767 124.193 50.4554 124.016C50.334 123.839 50.2314 123.643 50.1474 123.428C50.0727 123.213 49.914 123.017 49.6714 122.84C49.4287 122.663 49.1114 122.574 48.7194 122.574C48.3087 122.574 47.9634 122.691 47.6834 122.924C47.4127 123.157 47.2774 123.447 47.2774 123.792C47.2774 124.156 47.422 124.441 47.7114 124.646C48.01 124.842 48.3694 124.987 48.7894 125.08C49.2094 125.173 49.6247 125.276 50.0354 125.388C50.4554 125.5 50.81 125.71 51.0994 126.018C51.398 126.317 51.5474 126.723 51.5474 127.236C51.5474 127.777 51.286 128.23 50.7634 128.594C50.25 128.949 49.5687 129.126 48.7194 129.126ZM58.7825 127.796C58.7825 128.029 58.8245 128.207 58.9085 128.328C58.9925 128.449 59.0812 128.519 59.1745 128.538C59.2678 128.547 59.3565 128.571 59.4405 128.608C59.5245 128.645 59.5665 128.706 59.5665 128.79C59.5665 128.986 59.2772 129.084 58.6985 129.084C57.9892 129.084 57.6485 128.739 57.6765 128.048L57.6485 127.964C57.2192 128.748 56.5005 129.14 55.4925 129.14C54.7085 129.14 54.0785 128.865 53.6025 128.314C53.1358 127.754 52.9025 126.965 52.9025 125.948V123.47C52.9025 123.265 52.8138 123.092 52.6365 122.952C52.4685 122.812 52.3845 122.714 52.3845 122.658V122.616C52.3845 122.504 52.4545 122.434 52.5945 122.406L53.7705 122.196C54.0225 122.149 54.1485 122.205 54.1485 122.364L54.1345 126.046C54.1345 126.858 54.2745 127.488 54.5545 127.936C54.8438 128.375 55.2545 128.594 55.7865 128.594C56.2905 128.594 56.7105 128.398 57.0465 128.006C57.3918 127.614 57.5645 127.101 57.5645 126.466V123.47C57.5645 123.274 57.4712 123.106 57.2845 122.966C57.1072 122.826 57.0185 122.723 57.0185 122.658V122.616C57.0185 122.504 57.0885 122.434 57.2285 122.406L58.4185 122.196C58.6612 122.149 58.7825 122.205 58.7825 122.364V127.796ZM60.6925 129C60.5152 129 60.4265 128.939 60.4265 128.818V128.776C60.4265 128.701 60.5059 128.603 60.6645 128.482C60.8325 128.351 60.9165 128.197 60.9165 128.02V120.152C60.9165 119.993 60.8745 119.863 60.7905 119.76C60.7159 119.648 60.6365 119.559 60.5525 119.494C60.4685 119.429 60.4265 119.368 60.4265 119.312V119.284C60.4265 119.209 60.4919 119.135 60.6225 119.06L61.7145 118.528C61.8545 118.472 61.9619 118.467 62.0365 118.514C62.1112 118.551 62.1485 118.621 62.1485 118.724V128.02C62.1485 128.197 62.2372 128.351 62.4145 128.482C62.6012 128.603 62.6945 128.701 62.6945 128.776V128.818C62.6945 128.939 62.6012 129 62.4145 129H60.6925ZM66.2411 129.14C65.6811 129.14 65.2378 128.963 64.9111 128.608C64.5938 128.244 64.4351 127.717 64.4351 127.026V122.84H63.5111C63.3711 122.84 63.3011 122.77 63.3011 122.63V122.49C63.3011 122.35 63.3711 122.28 63.5111 122.28H64.0151C64.6498 122.28 65.0045 121.837 65.0791 120.95C65.0978 120.763 65.1771 120.67 65.3171 120.67H65.4571C65.6065 120.67 65.6811 120.763 65.6811 120.95L65.6951 122.28H67.6271C67.6831 122.28 67.7298 122.303 67.7671 122.35C67.8138 122.387 67.8371 122.434 67.8371 122.49V122.63C67.8371 122.77 67.7671 122.84 67.6271 122.84H65.6951V127.04C65.6951 127.413 65.7745 127.703 65.9331 127.908C66.0918 128.113 66.3065 128.216 66.5771 128.216C66.8758 128.216 67.1138 128.141 67.2911 127.992C67.4778 127.833 67.5851 127.628 67.6131 127.376C67.6598 127.264 67.7391 127.217 67.8511 127.236C67.9725 127.245 68.0331 127.311 68.0331 127.432C68.0331 127.889 67.8651 128.291 67.5291 128.636C67.2025 128.972 66.7731 129.14 66.2411 129.14ZM74.4654 127.88C74.484 128.076 74.5354 128.23 74.6194 128.342C74.7034 128.445 74.792 128.51 74.8854 128.538C74.9787 128.557 75.0627 128.585 75.1374 128.622C75.212 128.659 75.2494 128.715 75.2494 128.79C75.2494 128.986 74.9507 129.084 74.3534 129.084C74.0174 129.084 73.77 129.023 73.6114 128.902C73.4527 128.771 73.3594 128.524 73.3314 128.16C72.9767 128.813 72.3047 129.14 71.3154 129.14C70.5314 129.14 69.9014 128.953 69.4254 128.58C68.9494 128.207 68.7114 127.689 68.7114 127.026C68.702 126.373 68.9354 125.864 69.4114 125.5C69.8967 125.136 70.5174 124.954 71.2734 124.954C72.02 124.954 72.594 125.141 72.9954 125.514L72.9674 125.136C72.8834 124.277 72.7107 123.638 72.4494 123.218C72.188 122.798 71.7867 122.588 71.2454 122.588C70.9187 122.588 70.648 122.672 70.4334 122.84C70.2187 123.008 70.0694 123.19 69.9854 123.386C69.9107 123.582 69.8174 123.764 69.7054 123.932C69.5934 124.1 69.4627 124.184 69.3134 124.184C69.1454 124.184 69.01 124.137 68.9074 124.044C68.814 123.951 68.7674 123.825 68.7674 123.666C68.7674 123.274 68.996 122.924 69.4534 122.616C69.92 122.299 70.5174 122.14 71.2454 122.14C72.0947 122.14 72.7714 122.401 73.2754 122.924C73.7887 123.437 74.092 124.161 74.1854 125.094L74.4654 127.88ZM71.6234 128.692C72.0807 128.692 72.454 128.547 72.7434 128.258C73.0327 127.959 73.168 127.591 73.1494 127.152L73.0934 126.522C73.0187 126.186 72.8414 125.915 72.5614 125.71C72.2907 125.505 71.9547 125.402 71.5534 125.402C71.0774 125.402 70.69 125.537 70.3914 125.808C70.0927 126.079 69.9434 126.429 69.9434 126.858C69.9434 127.381 70.0974 127.819 70.4054 128.174C70.7227 128.519 71.1287 128.692 71.6234 128.692ZM78.2724 129.14C77.7124 129.14 77.269 128.963 76.9424 128.608C76.625 128.244 76.4664 127.717 76.4664 127.026V122.84H75.5424C75.4024 122.84 75.3324 122.77 75.3324 122.63V122.49C75.3324 122.35 75.4024 122.28 75.5424 122.28H76.0464C76.681 122.28 77.0357 121.837 77.1104 120.95C77.129 120.763 77.2084 120.67 77.3484 120.67H77.4884C77.6377 120.67 77.7124 120.763 77.7124 120.95L77.7264 122.28H79.6584C79.7144 122.28 79.761 122.303 79.7984 122.35C79.845 122.387 79.8684 122.434 79.8684 122.49V122.63C79.8684 122.77 79.7984 122.84 79.6584 122.84H77.7264V127.04C77.7264 127.413 77.8057 127.703 77.9644 127.908C78.123 128.113 78.3377 128.216 78.6084 128.216C78.907 128.216 79.145 128.141 79.3224 127.992C79.509 127.833 79.6164 127.628 79.6444 127.376C79.691 127.264 79.7704 127.217 79.8824 127.236C80.0037 127.245 80.0644 127.311 80.0644 127.432C80.0644 127.889 79.8964 128.291 79.5604 128.636C79.2337 128.972 78.8044 129.14 78.2724 129.14ZM81.9046 120.95C81.6153 120.95 81.3866 120.871 81.2186 120.712C81.0506 120.553 80.9666 120.343 80.9666 120.082C80.9666 119.821 81.0506 119.611 81.2186 119.452C81.3959 119.284 81.6246 119.2 81.9046 119.2C82.1753 119.2 82.3946 119.284 82.5626 119.452C82.7306 119.611 82.8146 119.821 82.8146 120.082C82.8146 120.343 82.7306 120.553 82.5626 120.712C82.3946 120.871 82.1753 120.95 81.9046 120.95ZM81.0926 129C80.9153 129 80.8266 128.939 80.8266 128.818V128.762C80.8266 128.697 80.8686 128.636 80.9526 128.58C81.0366 128.515 81.1206 128.44 81.2046 128.356C81.2886 128.263 81.3306 128.146 81.3306 128.006V123.834C81.3306 123.619 81.2466 123.433 81.0786 123.274C80.9106 123.115 80.8266 123.013 80.8266 122.966V122.938C80.8266 122.873 80.8966 122.803 81.0366 122.728L82.1146 122.196C82.2639 122.14 82.3713 122.131 82.4366 122.168C82.5113 122.205 82.5486 122.28 82.5486 122.392V128.006C82.5486 128.118 82.5766 128.216 82.6326 128.3C82.6886 128.375 82.7539 128.431 82.8286 128.468C82.9033 128.505 82.9686 128.552 83.0246 128.608C83.0806 128.655 83.1086 128.706 83.1086 128.762V128.818C83.1086 128.939 83.0106 129 82.8146 129H81.0926ZM87.7449 129.14C86.6622 129.14 85.7802 128.79 85.0989 128.09C84.4269 127.381 84.0909 126.531 84.0909 125.542C84.0909 124.571 84.4176 123.764 85.0709 123.12C85.7242 122.467 86.5316 122.14 87.4929 122.14C88.5289 122.14 89.3782 122.485 90.0409 123.176C90.7129 123.857 91.0489 124.697 91.0489 125.696C91.0489 126.676 90.7409 127.497 90.1249 128.16C89.5089 128.813 88.7156 129.14 87.7449 129.14ZM87.9129 128.678C88.4636 128.678 88.9162 128.445 89.2709 127.978C89.6349 127.511 89.8169 126.891 89.8169 126.116C89.8169 125.127 89.5836 124.296 89.1169 123.624C88.6502 122.943 88.0622 122.602 87.3529 122.602C86.7556 122.602 86.2702 122.835 85.8969 123.302C85.5236 123.759 85.3369 124.375 85.3369 125.15C85.3369 126.083 85.5796 126.905 86.0649 127.614C86.5502 128.323 87.1662 128.678 87.9129 128.678ZM98.7409 127.992C98.7503 128.141 98.7969 128.263 98.8809 128.356C98.9649 128.449 99.0443 128.529 99.1189 128.594C99.2029 128.65 99.2449 128.711 99.2449 128.776V128.832C99.2449 128.953 99.1469 129.014 98.9509 129.014H97.2849C97.0889 129.014 96.9909 128.953 96.9909 128.832V128.776C96.9909 128.711 97.0749 128.613 97.2429 128.482C97.4203 128.351 97.5043 128.193 97.4949 128.006L97.3549 125.206C97.3176 124.375 97.1449 123.75 96.8369 123.33C96.5383 122.901 96.1369 122.686 95.6329 122.686C95.1196 122.686 94.6996 122.868 94.3729 123.232C94.0463 123.596 93.8829 124.058 93.8829 124.618V128.02C93.8829 128.132 93.9109 128.23 93.9669 128.314C94.0323 128.389 94.0976 128.445 94.1629 128.482C94.2283 128.519 94.2889 128.566 94.3449 128.622C94.4103 128.669 94.4429 128.72 94.4429 128.776V128.832C94.4429 128.953 94.3449 129.014 94.1489 129.014H92.3989C92.2123 129.014 92.1189 128.953 92.1189 128.832V128.776C92.1189 128.701 92.2076 128.603 92.3849 128.482C92.5716 128.361 92.6649 128.207 92.6649 128.02V123.778C92.6649 123.601 92.6136 123.465 92.5109 123.372C92.4176 123.269 92.3196 123.19 92.2169 123.134C92.1236 123.078 92.0769 123.017 92.0769 122.952V122.91C92.0769 122.826 92.1516 122.756 92.3009 122.7L93.3509 122.196C93.4816 122.131 93.5796 122.121 93.6449 122.168C93.7103 122.215 93.7429 122.294 93.7429 122.406V123.428C93.9483 123.036 94.2423 122.723 94.6249 122.49C95.0169 122.257 95.4509 122.14 95.9269 122.14C96.6549 122.14 97.2616 122.397 97.7469 122.91C98.2416 123.423 98.5216 124.198 98.5869 125.234L98.7409 127.992ZM102.86 129.126C102.001 129.126 101.311 128.953 100.788 128.608C100.275 128.263 100.018 127.903 100.018 127.53C100.018 127.185 100.2 127.012 100.564 127.012C100.723 127.012 100.849 127.073 100.942 127.194C101.045 127.306 101.133 127.446 101.208 127.614C101.283 127.782 101.371 127.95 101.474 128.118C101.586 128.286 101.759 128.431 101.992 128.552C102.225 128.664 102.515 128.72 102.86 128.72C103.327 128.72 103.709 128.613 104.008 128.398C104.307 128.174 104.456 127.871 104.456 127.488C104.456 127.115 104.307 126.825 104.008 126.62C103.719 126.415 103.364 126.27 102.944 126.186C102.524 126.093 102.104 125.99 101.684 125.878C101.264 125.766 100.905 125.561 100.606 125.262C100.317 124.963 100.172 124.562 100.172 124.058C100.172 123.517 100.419 123.064 100.914 122.7C101.409 122.327 102.039 122.14 102.804 122.14C103.616 122.14 104.274 122.313 104.778 122.658C105.282 123.003 105.534 123.381 105.534 123.792C105.534 123.932 105.483 124.049 105.38 124.142C105.287 124.235 105.17 124.282 105.03 124.282C104.862 124.282 104.717 124.193 104.596 124.016C104.475 123.839 104.372 123.643 104.288 123.428C104.213 123.213 104.055 123.017 103.812 122.84C103.569 122.663 103.252 122.574 102.86 122.574C102.449 122.574 102.104 122.691 101.824 122.924C101.553 123.157 101.418 123.447 101.418 123.792C101.418 124.156 101.563 124.441 101.852 124.646C102.151 124.842 102.51 124.987 102.93 125.08C103.35 125.173 103.765 125.276 104.176 125.388C104.596 125.5 104.951 125.71 105.24 126.018C105.539 126.317 105.688 126.723 105.688 127.236C105.688 127.777 105.427 128.23 104.904 128.594C104.391 128.949 103.709 129.126 102.86 129.126Z" fill="black"></path><path d="M23.6666 31.1667H29.5" stroke="#292D32" stroke-width="1.5" stroke-miterlimit="10" stroke-linecap="round" stroke-linejoin="round"></path><path d="M23.6666 34.5H27.3166" stroke="#292D32" stroke-width="1.5" stroke-miterlimit="10" stroke-linecap="round" stroke-linejoin="round"></path><path d="M25.3333 26H28.6666C30.3333 26 30.3333 25.1667 30.3333 24.3333C30.3333 22.6667 29.5 22.6667 28.6666 22.6667H25.3333C24.5 22.6667 23.6666 22.6667 23.6666 24.3333C23.6666 26 24.5 26 25.3333 26Z" stroke="#292D32" stroke-width="1.5" stroke-miterlimit="10" stroke-linecap="round" stroke-linejoin="round"></path><path d="M30.3333 24.35C33.1083 24.5 34.5 25.525 34.5 29.3333V34.3333C34.5 37.6667 33.6667 39.3333 29.5 39.3333H24.5C20.3333 39.3333 19.5 37.6667 19.5 34.3333V29.3333C19.5 25.5333 20.8917 24.5 23.6667 24.35" stroke="#292D32" stroke-width="1.5" stroke-miterlimit="10" stroke-linecap="round" stroke-linejoin="round"></path><line y1="58.5" x2="263" y2="58.5" stroke="#F4F4F4"></line><line y1="102.5" x2="263" y2="102.5" stroke="#F4F4F4"></line><line y1="146.5" x2="263" y2="146.5" stroke="#F4F4F4"></line><path d="M0 0H263H0ZM263 187C263 194.732 256.732 201 249 201H14C6.26801 201 0 194.732 0 187C0 190.314 4.47715 193 10 193H253C258.523 193 263 190.314 263 187ZM0 197V0V197ZM263 0V197V0Z" fill="#FEB139" mask="url(#path-1-inside-1_11_30)"></path></svg>