<svg xmlns="http://www.w3.org/2000/svg" width="81" height="59" viewBox="0 0 81 59" fill="none"><path d="M17.4154 32.6014C17.3911 32.7455 17.2695 32.8466 17.131 32.8466C17.1142 32.8466 17.0992 32.8447 17.0842 32.8428L4.24339 30.8034C4.08623 30.7791 3.97771 30.6294 4.0039 30.4722C4.02823 30.3151 4.17791 30.2065 4.33507 30.2327L17.1722 32.2721C17.3312 32.2965 17.4397 32.4443 17.4154 32.6014ZM18.117 28.5825L5.79821 24.4307C5.64666 24.3783 5.48201 24.4606 5.43149 24.6122C5.38098 24.7637 5.46143 24.9284 5.61298 24.977L17.9318 29.1307C17.9636 29.1419 17.9935 29.1475 18.0254 29.1475C18.1451 29.1475 18.2592 29.0708 18.3004 28.9492C18.3509 28.7995 18.2686 28.6349 18.117 28.5825ZM7.92744 19.4594L19.3856 25.6076C19.4286 25.63 19.4754 25.6412 19.5203 25.6412C19.6232 25.6412 19.7242 25.5851 19.7748 25.4878C19.8515 25.3475 19.7991 25.1716 19.6569 25.0968L8.19874 18.9486C8.05654 18.8738 7.88253 18.9261 7.80582 19.0683C7.73285 19.2087 7.78711 19.3845 7.92744 19.4594ZM11.1493 14.4319L21.44 22.3875C21.4924 22.4268 21.5541 22.4474 21.6158 22.4474C21.7019 22.4474 21.788 22.4081 21.846 22.3333C21.9433 22.2079 21.9208 22.0264 21.7936 21.9273L11.503 13.9735C11.3776 13.8762 11.1961 13.8987 11.097 14.0241C10.9997 14.1513 11.0221 14.3347 11.1493 14.4319ZM23.9789 19.5305C24.0351 19.5922 24.1137 19.624 24.1904 19.624C24.2596 19.624 24.3326 19.5978 24.3887 19.5473C24.5047 19.4388 24.5122 19.2554 24.4037 19.1376L15.5575 9.59909C15.449 9.48309 15.2656 9.4756 15.1496 9.58412C15.0317 9.69264 15.0242 9.876 15.1327 9.99388L23.9789 19.5305ZM26.9408 17.1187C26.9969 17.2029 27.0886 17.2478 27.184 17.2478C27.2383 17.2478 27.2925 17.2329 27.3412 17.2011C27.4759 17.1131 27.5114 16.9335 27.4254 16.8007L20.2668 5.93563C20.177 5.80278 19.9993 5.76536 19.8664 5.8533C19.7317 5.93937 19.6962 6.12086 19.7822 6.2537L26.9408 17.1187ZM30.2656 15.2496C30.3142 15.3581 30.419 15.4217 30.5313 15.4217C30.5706 15.4217 30.6099 15.4142 30.6491 15.3974C30.7951 15.3338 30.8606 15.1616 30.7951 15.0157L25.5319 3.11412C25.4683 2.96818 25.298 2.90083 25.1502 2.96631C25.0043 3.0318 24.9388 3.20393 25.0024 3.34987L30.2656 15.2496ZM33.8486 13.9735C33.8823 14.1045 34.0001 14.1906 34.1292 14.1906C34.1536 14.1906 34.176 14.1887 34.2003 14.1812C34.3556 14.1419 34.4492 13.9848 34.4099 13.8295L31.2011 1.2169C31.1599 1.06348 31.0046 0.968058 30.8493 1.00922C30.6941 1.04851 30.6005 1.20568 30.6398 1.36097L33.8486 13.9735ZM37.8806 13.5507C37.8881 13.5507 37.8956 13.5507 37.905 13.5507C38.064 13.5376 38.1819 13.3973 38.1688 13.2382L37.0986 0.266425C37.0855 0.107388 36.9433 -0.0104868 36.7861 0.000739564C36.6271 0.0138368 36.5092 0.154163 36.5204 0.3132L37.5925 13.285C37.6037 13.4366 37.731 13.5507 37.8806 13.5507ZM41.677 13.5507C41.6863 13.5507 41.6938 13.5507 41.7013 13.5507C41.851 13.5507 41.9782 13.4366 41.9894 13.285L43.0615 0.3132C43.0727 0.154163 42.9549 0.0138368 42.7958 0.000739564C42.6368 -0.0104868 42.4965 0.107388 42.4834 0.266425L41.4131 13.2382C41.4 13.3973 41.5179 13.5376 41.677 13.5507ZM45.3816 14.1831C45.4059 14.1887 45.4284 14.1925 45.4527 14.1925C45.5818 14.1925 45.6997 14.1045 45.7333 13.9754L48.9421 1.36097C48.9814 1.20568 48.8879 1.04851 48.7326 1.00922C48.5773 0.96993 48.422 1.06348 48.3808 1.2169L45.172 13.8313C45.1327 13.9866 45.2244 14.1438 45.3816 14.1831ZM48.9328 15.3974C48.9721 15.4142 49.0114 15.4217 49.0507 15.4217C49.1629 15.4217 49.2677 15.3562 49.3163 15.2477L54.5795 3.34613C54.6432 3.20019 54.5777 3.02805 54.4317 2.96444C54.2858 2.90083 54.1137 2.96631 54.05 3.11225L48.7868 15.0138C48.7214 15.1598 48.7868 15.3319 48.9328 15.3974ZM52.2389 17.2011C52.2875 17.2329 52.3437 17.2478 52.3979 17.2478C52.4933 17.2478 52.585 17.2029 52.6412 17.1187L59.7997 6.2537C59.8858 6.12086 59.8502 5.93937 59.7155 5.8533C59.5826 5.76536 59.403 5.80091 59.3151 5.93563L52.1566 16.8007C52.0686 16.9335 52.106 17.1112 52.2389 17.2011ZM55.1932 19.5473C55.2475 19.5978 55.3186 19.624 55.3897 19.624C55.4664 19.624 55.545 19.5922 55.6011 19.5305L64.4473 9.99388C64.5558 9.876 64.5483 9.69264 64.4323 9.58412C64.3145 9.4756 64.1311 9.48309 64.0226 9.59909L55.1764 19.1376C55.0697 19.2554 55.0772 19.4388 55.1932 19.5473ZM57.7378 22.3333C57.7958 22.4081 57.88 22.4474 57.9661 22.4474C58.0278 22.4474 58.0914 22.4268 58.1438 22.3875L68.4326 14.4319C68.5598 14.3347 68.5841 14.1513 68.485 14.0241C68.3877 13.8987 68.2062 13.8744 68.079 13.9735L57.7883 21.9291C57.663 22.0264 57.6387 22.2079 57.7378 22.3333ZM59.8053 25.4878C59.8577 25.5851 59.9569 25.6412 60.0598 25.6412C60.1047 25.6412 60.1533 25.63 60.1963 25.6076L71.6545 19.4594C71.7929 19.3845 71.8472 19.2087 71.7724 19.0683C71.6957 18.928 71.5217 18.8738 71.3813 18.9486L59.9232 25.0968C59.7828 25.1716 59.7286 25.3475 59.8053 25.4878ZM74.1504 24.6122C74.0981 24.4606 73.9353 24.3783 73.7837 24.4307L61.4649 28.5825C61.3133 28.6349 61.231 28.7977 61.2834 28.9492C61.3227 29.069 61.4368 29.1475 61.5585 29.1475C61.5884 29.1475 61.6183 29.1419 61.6501 29.1307L73.9689 24.977C74.1205 24.9284 74.201 24.7637 74.1504 24.6122ZM75.5762 30.4722C75.55 30.3151 75.404 30.2065 75.2469 30.2327L62.4079 32.2721C62.2507 32.2965 62.1403 32.4443 62.1665 32.6014C62.189 32.7455 62.3125 32.8466 62.4509 32.8466C62.4678 32.8466 62.4809 32.8447 62.4977 32.8428L75.3367 30.8034C75.4938 30.7791 75.6024 30.6294 75.5762 30.4722ZM39.9837 14.4001C28.2973 14.4001 18.7887 23.9199 18.7887 35.6213C18.7887 35.7822 18.9178 35.9113 19.0769 35.9113C19.2359 35.9113 19.3669 35.7803 19.3669 35.6213C19.3669 24.2398 28.6135 14.9783 39.9818 14.9783C51.3501 14.9783 60.5967 24.2398 60.5967 35.6213C60.5967 35.7822 60.7277 35.9113 60.8868 35.9113C61.0458 35.9113 61.1749 35.7803 61.1749 35.6213C61.1786 23.9199 51.6701 14.4001 39.9837 14.4001ZM39.9837 17.8915C30.2188 17.8915 22.2763 25.8471 22.2763 35.6213C22.2763 35.7822 22.4054 35.9113 22.5645 35.9113C22.7235 35.9113 22.8545 35.7803 22.8545 35.6213C22.8545 26.1633 30.5388 18.4696 39.9837 18.4696C40.1427 18.4696 40.2718 18.3405 40.2718 18.1815C40.2718 18.0224 40.1427 17.8915 39.9837 17.8915ZM39.9837 21.3847C32.1422 21.3847 25.762 27.7723 25.762 35.6213C25.762 35.7822 25.893 35.9113 26.052 35.9113C26.2111 35.9113 26.3402 35.7803 26.3402 35.6213C26.3402 28.0885 32.4603 21.9628 39.9818 21.9628C40.1427 21.9628 40.2718 21.8318 40.2718 21.6728C40.2718 21.5138 40.1427 21.3847 39.9837 21.3847ZM39.9837 24.8741C34.0656 24.8741 29.2515 29.6957 29.2515 35.6213C29.2515 35.7822 29.3806 35.9113 29.5396 35.9113C29.6987 35.9113 29.8278 35.7803 29.8278 35.6213C29.8278 30.0157 34.3837 25.4541 39.9837 25.4541C40.1427 25.4541 40.2718 25.3232 40.2718 25.166C40.2718 25.007 40.1427 24.8741 39.9837 24.8741ZM39.9837 28.3673C35.9872 28.3673 32.7372 31.621 32.7372 35.6213C32.7372 35.7822 32.8682 35.9113 33.0253 35.9113C33.1844 35.9113 33.3154 35.7803 33.3154 35.6213C33.3154 31.941 36.3071 28.9473 39.9818 28.9473C40.1427 28.9473 40.2718 28.8164 40.2718 28.6573C40.2718 28.4983 40.1427 28.3673 39.9837 28.3673Z" fill="#FEB139"></path><path d="M2.26245 49.5851C2.07668 49.5851 1.9845 49.5043 1.9845 49.3412V49.2958C1.9845 49.1937 2.06959 49.0377 2.23976 48.825C2.40994 48.6137 2.49503 48.4024 2.49503 48.1897V42.3129H2.14333C1.95755 42.3129 1.78596 42.3895 1.62712 42.5398C1.46829 42.6915 1.3435 42.856 1.25273 43.0333C1.16481 43.212 1.05987 43.3765 0.93507 43.5268C0.813109 43.6786 0.686894 43.7537 0.555007 43.7537H0.333776C0.223161 43.7537 0.136654 43.7225 0.0728375 43.6573C0.0118572 43.5892 -0.0108331 43.5013 0.00476659 43.3907L0.237342 41.7229C0.271378 41.4663 0.41461 41.3372 0.668458 41.3372H6.68706C6.94375 41.3372 7.08698 41.4663 7.11818 41.7229L7.35076 43.3907C7.36494 43.5013 7.34083 43.5892 7.27701 43.6573C7.21603 43.7225 7.13094 43.7537 7.02175 43.7537H6.80619C6.67288 43.7537 6.54525 43.6786 6.42045 43.5268C6.29566 43.3765 6.18788 43.212 6.09712 43.0333C6.00919 42.856 5.88723 42.6915 5.7284 42.5398C5.56957 42.3895 5.39655 42.3129 5.21219 42.3129H4.86049V48.1897C4.86049 48.4024 4.947 48.6137 5.12143 48.825C5.2987 49.0377 5.38804 49.1937 5.38804 49.2958V49.3412C5.38804 49.5043 5.28877 49.5851 5.09307 49.5851H2.26245Z" fill="black"></path><path d="M13.4254 48.2237C13.448 48.4208 13.4906 48.5797 13.5558 48.7002C13.6239 48.8179 13.6877 48.8959 13.7487 48.9328C13.8083 48.9668 13.8636 49.0094 13.9132 49.0576C13.9657 49.1072 13.9926 49.1682 13.9926 49.2391C13.9926 49.5156 13.5076 49.6532 12.5404 49.6532C11.837 49.6532 11.4371 49.483 11.3435 49.1427C11.04 49.5142 10.5635 49.6986 9.91403 49.6986C9.2631 49.6986 8.7313 49.5511 8.32004 49.2561C7.91161 48.9583 7.7074 48.5173 7.7074 47.9344C7.7074 47.3714 7.90736 46.9332 8.30869 46.6184C8.71286 46.305 9.20638 46.1475 9.78923 46.1475C10.2274 46.1475 10.5976 46.2326 10.9011 46.4028C10.8103 45.5108 10.7323 44.9833 10.6685 44.8202C10.5848 44.6046 10.4373 44.4968 10.226 44.4968C10.0814 44.4968 9.96225 44.5805 9.86865 44.7464C9.77363 44.9138 9.70556 45.101 9.66444 45.308C9.62189 45.5122 9.52404 45.698 9.36946 45.8639C9.21347 46.0313 9.00784 46.1135 8.75115 46.1135C8.4817 46.1135 8.26331 46.0369 8.09313 45.8809C7.92296 45.7264 7.83787 45.5236 7.83787 45.274C7.83787 44.9492 7.95841 44.6784 8.20091 44.4628C8.44625 44.2444 8.74122 44.0941 9.08583 44.0147C9.42903 43.9324 9.80909 43.8899 10.226 43.8899C11.023 43.8899 11.6867 44.1026 12.2171 44.5252C12.7503 44.9492 13.0637 45.5122 13.1587 46.2156L13.4254 48.2237ZM10.6571 49.0519C10.7961 49.0519 10.9039 48.9711 10.9805 48.808C11.0599 48.6463 11.0911 48.4761 11.0769 48.2975L11.0315 47.7472C10.9521 47.1317 10.7607 46.8226 10.4586 46.8226C10.3451 46.8226 10.2501 46.885 10.175 47.0098C10.1026 47.1317 10.0672 47.2877 10.0672 47.4806C10.0672 47.9231 10.1182 48.296 10.2204 48.5981C10.3253 48.9016 10.4714 49.0519 10.6571 49.0519Z" fill="black"></path><path d="M14.4676 49.5851C14.2748 49.5851 14.1783 49.5043 14.1783 49.3412V49.2958C14.1783 49.1937 14.2578 49.0377 14.4166 48.825C14.5754 48.6137 14.6548 48.4024 14.6548 48.1897V43.2092C14.6548 42.9979 14.5754 42.7894 14.4166 42.5852C14.2578 42.381 14.1783 42.2363 14.1783 42.1484V42.103C14.1783 42.0009 14.2748 41.9045 14.4676 41.8137L16.453 40.838C16.6232 40.7586 16.7608 40.7515 16.8671 40.8153C16.9721 40.8763 17.026 40.9727 17.026 41.1046V48.1897C17.026 48.4024 17.1139 48.6137 17.2926 48.825C17.4699 49.0377 17.5592 49.1937 17.5592 49.2958V49.3412C17.5592 49.5043 17.4628 49.5851 17.2699 49.5851H14.4676Z" fill="black"></path><path d="M24.4017 48.53C24.4315 48.5754 24.552 48.6804 24.7647 48.842C24.9761 49.0051 25.0824 49.1569 25.0824 49.2958V49.3412C25.0824 49.5043 24.986 49.5851 24.7931 49.5851H22.1213C21.9285 49.5851 21.832 49.5001 21.832 49.3299V49.2845C21.832 49.1824 21.8888 49.0576 22.0022 48.9101C22.1185 48.7626 22.144 48.6364 22.0759 48.53L21.2534 47.18L20.7542 47.6451V48.1897C20.7542 48.4024 20.8422 48.6137 21.0208 48.825C21.1981 49.0377 21.2875 49.1937 21.2875 49.2958V49.3412C21.2875 49.5043 21.191 49.5851 20.9982 49.5851H18.1959C18.003 49.5851 17.9066 49.5043 17.9066 49.3412V49.2958C17.9066 49.1937 17.986 49.0377 18.1448 48.825C18.3037 48.6137 18.3831 48.4024 18.3831 48.1897V43.2092C18.3831 42.9979 18.2824 42.7894 18.0824 42.5852C17.8853 42.381 17.7875 42.2363 17.7875 42.1484V42.103C17.7875 42.0009 17.8839 41.9045 18.0768 41.8137L20.1813 40.838C20.3515 40.7671 20.489 40.7629 20.5954 40.8267C20.7003 40.8877 20.7542 40.9798 20.7542 41.1046V46.5276L22.11 45.3818C22.2036 45.3179 22.2405 45.2343 22.2178 45.1322C22.1979 45.0272 22.1582 44.9365 22.0986 44.8599C22.0377 44.7805 21.9738 44.6883 21.9058 44.5819C21.8405 44.4727 21.8093 44.382 21.8093 44.3096V44.2643C21.8093 44.0941 21.9058 44.009 22.0986 44.009H24.0727C24.2656 44.009 24.362 44.0912 24.362 44.2529V44.2983C24.362 44.4089 24.3024 44.5167 24.1861 44.6216C24.0727 44.7237 23.9082 44.8471 23.6926 44.9904C23.4799 45.135 23.3182 45.2612 23.2048 45.3704L22.6205 45.915L24.4017 48.53Z" fill="black"></path><path d="M29.7739 49.6986C29.1641 49.6986 28.6791 49.5043 28.3161 49.1143C27.9559 48.7257 27.7772 48.1698 27.7772 47.4466V44.8826H27.4311C27.3432 44.8826 27.2723 44.8542 27.2156 44.7975C27.1617 44.7379 27.1362 44.667 27.1362 44.5876V44.2983C27.1362 44.1054 27.234 44.009 27.4311 44.009H27.59C27.9715 44.009 28.3047 43.9012 28.5883 43.6856C28.8748 43.4673 29.062 43.1794 29.1499 42.8234C29.2024 42.6079 29.3173 42.5001 29.496 42.5001H29.8136C29.9115 42.5001 29.9909 42.5284 30.0519 42.5852C30.1157 42.6419 30.1483 42.7213 30.1483 42.8234V44.009H31.2374C31.324 44.009 31.3934 44.0373 31.4473 44.0941C31.5041 44.148 31.5324 44.216 31.5324 44.2983V44.5876C31.5324 44.667 31.5041 44.7379 31.4473 44.7975C31.3934 44.8542 31.324 44.8826 31.2374 44.8826H30.1483V47.4919C30.1483 47.655 30.1909 47.7855 30.2788 47.8834C30.3695 47.9826 30.4844 48.0308 30.6248 48.0308C30.9042 48.0308 31.1481 47.906 31.3566 47.6565C31.4473 47.5543 31.5466 47.5189 31.6572 47.5487C31.7664 47.5756 31.8217 47.6451 31.8217 47.7586C31.8217 48.2733 31.6374 48.7257 31.2715 49.1143C30.9084 49.5043 30.4092 49.6986 29.7739 49.6986Z" fill="black"></path><path d="M35.3033 49.6986C34.4297 49.6986 33.671 49.4263 33.0286 48.8817C32.3848 48.3372 32.0643 47.6437 32.0643 46.7999C32.0643 45.9533 32.3848 45.257 33.0286 44.7124C33.671 44.165 34.4297 43.8899 35.3033 43.8899C36.1882 43.8899 36.9484 44.165 37.5837 44.7124C38.219 45.257 38.5367 45.9533 38.5367 46.7999C38.5367 47.6437 38.219 48.3372 37.5837 48.8817C36.9484 49.4263 36.1882 49.6986 35.3033 49.6986ZM35.5813 49.0746C35.7997 49.0746 35.9443 48.9767 36.0124 48.7796C36.0833 48.5797 36.1202 48.2719 36.1202 47.855C36.1202 47.5756 36.0819 47.1941 36.0067 46.7091C35.9344 46.2255 35.7982 45.7391 35.5983 45.2513C35.4012 44.7634 35.1728 44.5195 34.9119 44.5195C34.6992 44.5195 34.5574 44.616 34.4865 44.8088C34.4184 45.0017 34.3844 45.3194 34.3844 45.7618C34.3844 46.0724 34.4198 46.4695 34.4921 46.9531C34.5673 47.4381 34.7034 47.9117 34.9006 48.3769C35.1005 48.842 35.3274 49.0746 35.5813 49.0746Z" fill="black"></path><path d="M48.6515 48.1897C48.7422 48.4095 48.8812 48.6194 49.0712 48.8193C49.2641 49.0207 49.3605 49.1795 49.3605 49.2958V49.3412C49.3605 49.5043 49.2641 49.5851 49.0712 49.5851H45.6904C45.4932 49.5851 45.3954 49.5043 45.3954 49.3412V49.2958C45.3954 49.2164 45.4308 49.1356 45.5032 49.0519C45.5783 48.9654 45.6563 48.8902 45.7357 48.825C45.818 48.7569 45.8832 48.669 45.9286 48.5584C45.9768 48.4449 45.9797 48.323 45.9343 48.1897L45.7471 47.6565H43.0299L42.8427 48.1897C42.7974 48.323 42.7974 48.4449 42.8427 48.5584C42.8881 48.669 42.9505 48.7569 43.0299 48.825C43.1122 48.8902 43.1902 48.9654 43.2625 49.0519C43.3377 49.1356 43.376 49.2164 43.376 49.2958V49.3412C43.376 49.5043 43.2795 49.5851 43.0867 49.5851H41.192C40.9991 49.5851 40.9027 49.5043 40.9027 49.3412V49.2958C40.9027 49.1795 40.9991 49.0235 41.192 48.8307C41.3849 48.6378 41.5239 48.4251 41.6118 48.1897L43.6766 42.8348C43.7475 42.6504 43.6936 42.4192 43.5121 42.1427C43.3306 41.8633 43.2398 41.6917 43.2398 41.6265V41.5811C43.2398 41.4195 43.3362 41.3372 43.5291 41.3372H45.2479C45.6478 41.3372 45.9343 41.5386 46.1045 41.9385L48.6515 48.1897ZM43.376 46.6808H45.4238L44.4197 43.7424L43.376 46.6808Z" fill="black"></path><path d="M55.6174 48.2237C55.6174 48.4435 55.6415 48.6094 55.6911 48.7229C55.7436 48.8335 55.7961 48.8931 55.85 48.9044C55.9067 48.9158 55.9592 48.9484 56.0088 49.0009C56.057 49.0505 56.0825 49.1299 56.0825 49.2391C56.0825 49.5156 55.6415 49.6532 54.7608 49.6532C54.3779 49.6532 54.0986 49.6078 53.9213 49.5171C53.7426 49.4235 53.6348 49.2675 53.5979 49.0519C53.2945 49.483 52.7641 49.6986 52.004 49.6986C51.4098 49.6986 50.8992 49.5029 50.4724 49.1086C50.0441 48.7158 49.8314 48.1812 49.8314 47.5033V45.603C49.8314 45.3917 49.7519 45.1832 49.5931 44.979C49.4343 44.7748 49.3549 44.6301 49.3549 44.5422V44.4968C49.3549 44.4288 49.3804 44.3664 49.4343 44.3096C49.491 44.2501 49.5619 44.216 49.6498 44.2075L51.5785 43.9523C51.9869 43.904 52.1911 43.992 52.1911 44.2189L52.1458 47.7472C52.1373 48.1599 52.1798 48.4478 52.2706 48.6094C52.3642 48.7725 52.5159 48.8534 52.7244 48.8534C52.886 48.8534 53.025 48.7612 53.1385 48.5754C53.2519 48.3911 53.3086 48.15 53.3086 47.855V45.603C53.3086 45.3917 53.2292 45.1832 53.0704 44.979C52.9116 44.7748 52.8321 44.6301 52.8321 44.5422V44.4968C52.8321 44.4288 52.8577 44.3664 52.9116 44.3096C52.9683 44.2501 53.0378 44.216 53.1215 44.2075L55.0501 43.9523C55.4274 43.904 55.6174 43.992 55.6174 44.2189V48.2237Z" fill="black"></path><path d="M62.6326 44.4174C62.6326 44.5309 62.6014 44.6273 62.5418 44.7067C62.4809 44.7833 62.417 44.8343 62.349 44.8599C62.2837 44.8826 62.1859 44.9081 62.054 44.9336C61.9207 44.9606 61.8285 44.9847 61.776 45.0074C62.1164 45.4583 62.2866 45.9235 62.2866 46.4028C62.2866 47.2764 61.8838 47.9344 61.0783 48.3769C61.5732 48.479 61.9179 48.6265 62.1107 48.8193C62.3036 49.0122 62.4 49.2604 62.4 49.5624C62.4 49.9964 62.0965 50.3566 61.4924 50.6402C60.8911 50.9267 60.1508 51.0713 59.2744 51.0713C57.4394 51.0713 56.5232 50.5863 56.5232 49.6192C56.5232 49.3965 56.5998 49.198 56.7558 49.0235C56.9104 48.8505 57.1316 48.7626 57.4195 48.7626C57.6719 48.7626 57.8875 48.8505 58.0662 49.0235C58.2477 49.198 58.3782 49.3908 58.4576 49.6021C58.5398 49.8135 58.6504 50.0077 58.7866 50.1864C58.9256 50.3679 59.0887 50.4615 59.2744 50.4701C59.5311 50.4771 59.7297 50.3977 59.8701 50.2318C60.009 50.0645 60.0799 49.8461 60.0799 49.5738C60.0799 49.1171 59.9863 48.8364 59.802 48.7342C59.612 48.7541 59.4758 48.7626 59.3936 48.7626C58.5427 48.7626 57.8449 48.5456 57.3004 48.1103C56.7586 47.6763 56.4892 47.1062 56.4892 46.4028C56.4892 45.6512 56.7586 45.0442 57.3004 44.5819C57.8449 44.121 58.5427 43.8899 59.3936 43.8899C59.6162 43.8899 59.9665 43.9111 60.443 43.9523C60.9195 43.9906 61.3194 44.009 61.6456 44.009C62.0568 44.009 62.3234 44.0402 62.4454 44.0997C62.5702 44.1565 62.6326 44.2628 62.6326 44.4174ZM58.6618 45.3307C58.6618 45.9292 58.7696 46.5432 58.9851 47.1743C59.2035 47.8068 59.4446 48.1216 59.7055 48.1216C59.9778 48.1216 60.114 47.8522 60.114 47.3104C60.114 46.7971 60.0062 46.2029 59.7906 45.5292C59.5779 44.857 59.3368 44.5195 59.0645 44.5195C58.7951 44.5195 58.6618 44.7904 58.6618 45.3307Z" fill="black"></path><path d="M69.1484 48.2237C69.1484 48.4435 69.1725 48.6094 69.2221 48.7229C69.2746 48.8335 69.3271 48.8931 69.381 48.9044C69.4377 48.9158 69.4902 48.9484 69.5398 49.0009C69.588 49.0505 69.6135 49.1299 69.6135 49.2391C69.6135 49.5156 69.1725 49.6532 68.2918 49.6532C67.9089 49.6532 67.6296 49.6078 67.4523 49.5171C67.2736 49.4235 67.1658 49.2675 67.129 49.0519C66.8255 49.483 66.2951 49.6986 65.535 49.6986C64.9408 49.6986 64.4302 49.5029 64.0034 49.1086C63.5751 48.7158 63.3624 48.1812 63.3624 47.5033V45.603C63.3624 45.3917 63.2829 45.1832 63.1241 44.979C62.9653 44.7748 62.8859 44.6301 62.8859 44.5422V44.4968C62.8859 44.4288 62.9114 44.3664 62.9653 44.3096C63.022 44.2501 63.0929 44.216 63.1808 44.2075L65.1095 43.9523C65.5179 43.904 65.7222 43.992 65.7222 44.2189L65.6768 47.7472C65.6683 48.1599 65.7108 48.4478 65.8016 48.6094C65.8952 48.7725 66.0469 48.8534 66.2554 48.8534C66.417 48.8534 66.556 48.7612 66.6695 48.5754C66.7829 48.3911 66.8397 48.15 66.8397 47.855V45.603C66.8397 45.3917 66.7602 45.1832 66.6014 44.979C66.4426 44.7748 66.3632 44.6301 66.3632 44.5422V44.4968C66.3632 44.4288 66.3887 44.3664 66.4426 44.3096C66.4993 44.2501 66.5688 44.216 66.6525 44.2075L68.5811 43.9523C68.9584 43.904 69.1484 43.992 69.1484 44.2189V48.2237Z" fill="black"></path><path d="M72.6353 49.6872C71.8822 49.6872 71.2597 49.5667 70.769 49.3242C70.2769 49.0789 70.0316 48.7442 70.0316 48.3201C70.0316 48.0408 70.1166 47.8323 70.2868 47.6962C70.457 47.56 70.6782 47.492 70.9505 47.492C71.237 47.492 71.4681 47.577 71.6426 47.7472C71.8156 47.9174 71.9276 48.1074 71.9772 48.3145C72.0255 48.5187 72.1035 48.7059 72.2098 48.8761C72.3148 49.0462 72.4566 49.1313 72.6353 49.1313C72.9373 49.1313 73.0891 48.9541 73.0891 48.5981C73.0891 48.3258 72.9841 48.1074 72.7771 47.9401C72.5729 47.7742 72.3261 47.6479 72.0396 47.56C71.756 47.4693 71.4681 47.37 71.1774 47.2594C70.8853 47.1459 70.6357 46.963 70.4286 46.7091C70.2244 46.4525 70.1223 46.1178 70.1223 45.7051C70.1223 45.1719 70.3549 44.7379 70.82 44.4004C71.2852 44.06 71.8936 43.8899 72.6466 43.8899C73.3798 43.8899 73.9797 44.0246 74.4448 44.2926C74.91 44.5621 75.1425 44.8967 75.1425 45.2967C75.1425 45.5165 75.0575 45.7037 74.8873 45.8582C74.7171 46.0142 74.5072 46.0908 74.2576 46.0908C74.0265 46.0908 73.8379 46.0341 73.6904 45.9206C73.5429 45.8072 73.4365 45.6739 73.3727 45.5179C73.3117 45.3633 73.2593 45.2059 73.2139 45.0471C73.1685 44.8882 73.1118 44.7549 73.0437 44.6443C72.9785 44.5309 72.8877 44.4741 72.7714 44.4741C72.5247 44.4741 72.4027 44.6642 72.4027 45.0414C72.4027 45.3364 72.4991 45.5746 72.692 45.7561C72.8849 45.9377 73.1189 46.0781 73.3954 46.1759C73.6705 46.2752 73.9456 46.3787 74.2179 46.4879C74.493 46.5943 74.7285 46.7701 74.9213 47.0155C75.1142 47.258 75.2106 47.5685 75.2106 47.9458C75.2106 48.4563 74.9809 48.8746 74.5242 49.1994C74.0704 49.5256 73.4408 49.6872 72.6353 49.6872Z" fill="black"></path><path d="M78.2184 49.6986C77.6086 49.6986 77.1236 49.5043 76.7605 49.1143C76.4003 48.7257 76.2216 48.1698 76.2216 47.4466V44.8826H75.8756C75.7877 44.8826 75.7168 44.8542 75.66 44.7975C75.6062 44.7379 75.5806 44.667 75.5806 44.5876V44.2983C75.5806 44.1054 75.6785 44.009 75.8756 44.009H76.0344C76.4159 44.009 76.7492 43.9012 77.0328 43.6856C77.3193 43.4673 77.5065 43.1794 77.5944 42.8234C77.6469 42.6079 77.7617 42.5001 77.9404 42.5001H78.2581C78.3559 42.5001 78.4354 42.5284 78.4963 42.5852C78.5601 42.6419 78.5928 42.7213 78.5928 42.8234V44.009H79.6819C79.7684 44.009 79.8379 44.0373 79.8918 44.0941C79.9485 44.148 79.9769 44.216 79.9769 44.2983V44.5876C79.9769 44.667 79.9485 44.7379 79.8918 44.7975C79.8379 44.8542 79.7684 44.8826 79.6819 44.8826H78.5928V47.4919C78.5928 47.655 78.6353 47.7855 78.7232 47.8834C78.814 47.9826 78.9289 48.0308 79.0693 48.0308C79.3486 48.0308 79.5926 47.906 79.801 47.6565C79.8918 47.5543 79.9911 47.5189 80.1017 47.5487C80.2109 47.5756 80.2662 47.6451 80.2662 47.7586C80.2662 48.2733 80.0818 48.7257 79.7159 49.1143C79.3529 49.5043 78.8537 49.6986 78.2184 49.6986Z" fill="black"></path><path d="M16.5547 54.166V55.8013H14.5037V54.166H14V58.0457H14.5037V56.2776H16.5547V58.0457H17.0584V54.166H16.5547Z" fill="black"></path><path d="M19.0325 55.1908C18.6269 55.1908 18.3051 55.3293 18.0568 55.6064C17.8071 55.8792 17.6844 56.2271 17.6844 56.6543C17.6844 57.0931 17.8129 57.4409 18.0626 57.708C18.3109 57.9735 18.6385 58.1063 19.0325 58.1063C19.669 58.1063 20.102 57.7686 20.2738 57.2086H19.7961C19.6806 57.5131 19.4309 57.6632 19.0426 57.6632C18.5606 57.6632 18.217 57.3471 18.1781 56.8376H20.3012V56.6096C20.3012 55.6959 19.7917 55.1908 19.0325 55.1908ZM19.0325 55.6353C19.4973 55.6353 19.8134 55.9399 19.8191 56.4104H18.1838C18.2445 55.95 18.5606 55.6353 19.0325 55.6353Z" fill="black"></path><path d="M21.9301 55.1908C21.6255 55.1908 21.3816 55.2803 21.1882 55.4636C20.9933 55.6454 20.8937 55.8735 20.888 56.1448H21.3599C21.3599 55.8172 21.6039 55.6353 21.9301 55.6353C22.2736 55.6353 22.4453 55.8287 22.4453 56.2112V56.3498L21.5923 56.51C21.0713 56.6096 20.8115 56.8824 20.8115 57.3197C20.8115 57.8018 21.1319 58.1063 21.6255 58.1063C22.0195 58.1063 22.3241 57.9288 22.4742 57.6632L22.4958 58.0457H22.9288V56.1939C22.9288 55.5516 22.5565 55.1908 21.9301 55.1908ZM22.4453 56.8708C22.4453 57.07 22.3905 57.2418 22.2851 57.3861C22.1523 57.5694 21.9632 57.6632 21.7193 57.6632C21.448 57.6632 21.2935 57.5362 21.2935 57.3139C21.2935 57.0873 21.4379 56.9921 21.6818 56.9314L22.4453 56.7655V56.8708Z" fill="black"></path><path d="M23.7313 54V58.0457H24.209V54H23.7313Z" fill="black"></path><path d="M25.2222 54.5542L25.2179 55.2528H24.6968V55.6959H25.2179L25.2063 57.2807C25.2006 57.8407 25.4604 58.0847 25.9987 58.0847C26.1763 58.0847 26.3148 58.063 26.4144 58.024V57.5968C26.3148 57.63 26.2037 57.6473 26.0824 57.6473C25.7721 57.6473 25.6826 57.5189 25.6826 57.1927L25.6942 55.6959H26.4144V55.2528H25.7L25.7043 54.5542H25.2222Z" fill="black"></path><path d="M27.0076 54V58.0457H27.4839V56.5489C27.4839 55.9947 27.7553 55.657 28.132 55.657C28.4712 55.657 28.6761 55.8893 28.6761 56.3166V58.0457H29.1582V56.2386C29.1582 55.6021 28.8306 55.1908 28.2489 55.1908C27.8722 55.1908 27.6008 55.3625 27.4839 55.6021V54H27.0076Z" fill="black"></path><path d="M31.0863 55.1908C30.6937 55.1908 30.3719 55.3293 30.1106 55.6064C29.8566 55.8836 29.7281 56.2329 29.7281 56.6543C29.7281 57.0758 29.8566 57.4251 30.1106 57.6964C30.3661 57.9678 30.6937 58.1063 31.0863 58.1063C31.707 58.1063 32.1847 57.7743 32.3334 57.1754H31.8513C31.7575 57.4698 31.4573 57.6632 31.1037 57.6632C30.8482 57.6632 30.6375 57.5694 30.4715 57.3745C30.3055 57.1811 30.2218 56.943 30.2218 56.6543C30.2218 56.3613 30.3055 56.1174 30.4657 55.9225C30.6317 55.7291 30.8424 55.6353 31.0921 55.6353C31.4529 55.6353 31.7402 55.8114 31.8513 56.1232H32.3276C32.1948 55.5242 31.7127 55.1908 31.0863 55.1908Z" fill="black"></path><path d="M33.9239 55.1908C33.6193 55.1908 33.3754 55.2803 33.182 55.4636C32.9872 55.6454 32.8876 55.8735 32.8818 56.1448H33.3538C33.3538 55.8172 33.5977 55.6353 33.9239 55.6353C34.2674 55.6353 34.4392 55.8287 34.4392 56.2112V56.3498L33.5861 56.51C33.0651 56.6096 32.8053 56.8824 32.8053 57.3197C32.8053 57.8018 33.1257 58.1063 33.6193 58.1063C34.0134 58.1063 34.3179 57.9288 34.468 57.6632L34.4897 58.0457H34.9227V56.1939C34.9227 55.5516 34.5503 55.1908 33.9239 55.1908ZM34.4392 56.8708C34.4392 57.07 34.3843 57.2418 34.2789 57.3861C34.1462 57.5694 33.9571 57.6632 33.7132 57.6632C33.4418 57.6632 33.2874 57.5362 33.2874 57.3139C33.2874 57.0873 33.4317 56.9921 33.6756 56.9314L34.4392 56.7655V56.8708Z" fill="black"></path><path d="M37.0386 55.224C36.5954 55.224 36.3082 55.452 36.2029 55.7407L36.1697 55.2528H35.7424V58.0457H36.2187V56.5663C36.2245 56.2776 36.3082 56.0553 36.4742 55.9067C36.6229 55.7681 36.8119 55.7017 37.0386 55.7017V55.224Z" fill="black"></path><path d="M38.7137 55.1908C38.3081 55.1908 37.9862 55.3293 37.738 55.6064C37.4883 55.8792 37.3656 56.2271 37.3656 56.6543C37.3656 57.0931 37.4941 57.4409 37.7438 57.708C37.992 57.9735 38.3196 58.1063 38.7137 58.1063C39.3502 58.1063 39.7832 57.7686 39.955 57.2086H39.4772C39.3617 57.5131 39.112 57.6632 38.7238 57.6632C38.2417 57.6632 37.8982 57.3471 37.8592 56.8376H39.9824V56.6096C39.9824 55.6959 39.4729 55.1908 38.7137 55.1908ZM38.7137 55.6353C39.1784 55.6353 39.4945 55.9399 39.5003 56.4104H37.865C37.9256 55.95 38.2417 55.6353 38.7137 55.6353Z" fill="black"></path><path d="M40.7856 57.4366C40.6023 57.4366 40.4537 57.5795 40.4537 57.7628C40.4537 57.9403 40.5749 58.0673 40.7524 58.0847C40.725 58.3286 40.6586 58.5393 40.559 58.7111L40.7135 58.7717C40.9516 58.5061 41.1191 58.1294 41.1191 57.796C41.1191 57.5795 40.9805 57.4366 40.7856 57.4366Z" fill="black"></path><path d="M42.8977 54V58.0457H43.3249L43.3524 57.6358C43.5674 57.9519 43.8893 58.1063 44.3107 58.1063C44.699 58.1063 45.0151 57.9677 45.2532 57.6964C45.4914 57.4193 45.6126 57.07 45.6126 56.6485C45.6126 56.2328 45.4914 55.8836 45.2475 55.6064C45.0093 55.3293 44.6932 55.1908 44.305 55.1908C43.8792 55.1908 43.5674 55.3409 43.374 55.6353V54H42.8977ZM44.2328 55.6454C44.494 55.6454 44.7048 55.7407 44.8708 55.9283C45.0367 56.1116 45.1204 56.3555 45.1204 56.6485C45.1204 57.2475 44.7712 57.6574 44.2386 57.6574C44.0004 57.6574 43.7955 57.5694 43.6237 57.3861C43.4519 57.2028 43.3682 56.9704 43.3682 56.6774V56.6485C43.3682 56.3498 43.4519 56.1058 43.6237 55.9225C43.7955 55.7407 44.0004 55.6454 44.2328 55.6454Z" fill="black"></path><path d="M47.8352 55.2528V56.8044C47.8352 57.3312 47.5696 57.6473 47.1987 57.6473C46.8609 57.6473 46.6661 57.4193 46.6661 56.9819V55.2528H46.1898V57.0584C46.1898 57.7022 46.5059 58.1063 47.0875 58.1063C47.4585 58.1063 47.7197 57.9576 47.8583 57.6632L47.8857 58.0457H48.3129V55.2528H47.8352Z" fill="black"></path><path d="M49.3096 54.5542L49.3052 55.2528H48.7842V55.6959H49.3052L49.2937 57.2807C49.2879 57.8407 49.5477 58.0846 50.0861 58.0846C50.2636 58.0846 50.4022 58.063 50.5018 58.024V57.5968C50.4022 57.63 50.291 57.6473 50.1698 57.6473C49.8595 57.6473 49.77 57.5189 49.77 57.1927L49.7815 55.6959H50.5018V55.2528H49.7873L49.7916 54.5542H49.3096Z" fill="black"></path><path d="M52.2368 54V58.0457H52.664L52.6914 57.6358C52.9065 57.9519 53.2283 58.1063 53.6498 58.1063C54.038 58.1063 54.3541 57.9677 54.5923 57.6964C54.8304 57.4193 54.9517 57.07 54.9517 56.6485C54.9517 56.2328 54.8304 55.8836 54.5865 55.6064C54.3484 55.3293 54.0323 55.1908 53.644 55.1908C53.2182 55.1908 52.9065 55.3409 52.7131 55.6353V54H52.2368ZM53.5718 55.6454C53.8331 55.6454 54.0438 55.7407 54.2098 55.9283C54.3758 56.1116 54.4595 56.3555 54.4595 56.6485C54.4595 57.2475 54.1102 57.6574 53.5776 57.6574C53.3395 57.6574 53.1345 57.5694 52.9628 57.3861C52.791 57.2028 52.7073 56.9704 52.7073 56.6774V56.6485C52.7073 56.3498 52.791 56.1058 52.9628 55.9225C53.1345 55.7407 53.3395 55.6454 53.5718 55.6454Z" fill="black"></path><path d="M56.6877 55.1908C56.2822 55.1908 55.9603 55.3293 55.712 55.6064C55.4623 55.8792 55.3397 56.2271 55.3397 56.6543C55.3397 57.0931 55.4681 57.4409 55.7178 57.708C55.9661 57.9735 56.2937 58.1063 56.6877 58.1063C57.3243 58.1063 57.7573 57.7686 57.929 57.2086H57.4513C57.3358 57.5131 57.0861 57.6632 56.6978 57.6632C56.2158 57.6632 55.8723 57.3471 55.8333 56.8376H57.9564V56.6096C57.9564 55.6959 57.4469 55.1908 56.6877 55.1908ZM56.6877 55.6353C57.1525 55.6353 57.4686 55.9399 57.4744 56.4104H55.8391C55.8997 55.95 56.2158 55.6353 56.6877 55.6353Z" fill="black"></path><path d="M58.7871 54.5542L58.7828 55.2528H58.2617V55.6959H58.7828L58.7712 57.2807C58.7654 57.8407 59.0252 58.0846 59.5636 58.0846C59.7411 58.0846 59.8797 58.063 59.9793 58.024V57.5968C59.8797 57.63 59.7686 57.6473 59.6473 57.6473C59.337 57.6473 59.2475 57.5189 59.2475 57.1927L59.2591 55.6959H59.9793V55.2528H59.2648L59.2692 54.5542H58.7871Z" fill="black"></path><path d="M60.727 54.5542L60.7226 55.2528H60.2016V55.6959H60.7226L60.7111 57.2807C60.7053 57.8407 60.9651 58.0846 61.5035 58.0846C61.681 58.0846 61.8196 58.063 61.9192 58.024V57.5968C61.8196 57.63 61.7084 57.6473 61.5872 57.6473C61.2769 57.6473 61.1874 57.5189 61.1874 57.1927L61.1989 55.6959H61.9192V55.2528H61.2047L61.2091 54.5542H60.727Z" fill="black"></path><path d="M63.6324 55.1908C63.2268 55.1908 62.9049 55.3293 62.6567 55.6064C62.407 55.8792 62.2843 56.2271 62.2843 56.6543C62.2843 57.0931 62.4128 57.4409 62.6625 57.7079C62.9107 57.9735 63.2384 58.1063 63.6324 58.1063C64.2689 58.1063 64.7019 57.7686 64.8737 57.2085H64.3959C64.2804 57.5131 64.0307 57.6632 63.6425 57.6632C63.1604 57.6632 62.8169 57.3471 62.7779 56.8376H64.9011V56.6096C64.9011 55.6959 64.3916 55.1908 63.6324 55.1908ZM63.6324 55.6353C64.0971 55.6353 64.4132 55.9398 64.419 56.4104H62.7837C62.8443 55.9499 63.1604 55.6353 63.6324 55.6353Z" fill="black"></path><path d="M66.9067 55.224C66.4635 55.224 66.1763 55.452 66.071 55.7407L66.0378 55.2528H65.6105V58.0457H66.0868V56.5663C66.0926 56.2776 66.1763 56.0553 66.3423 55.9067C66.491 55.7681 66.6801 55.7017 66.9067 55.7017V55.224Z" fill="black"></path></svg>